<svg width="80" height="107" viewBox="0 0 80 107" fill="none" xmlns="http://www.w3.org/2000/svg">
<g id="configurator-6 1" clip-path="url(#clip0_28_422)">
<g id="Clip path group">
<mask id="mask0_28_422" style="mask-type:luminance" maskUnits="userSpaceOnUse" x="0" y="0" width="80" height="107">
<g id="clip0">
<path id="Vector" d="M80 0H0V106.667H80V0Z" fill="white"/>
</g>
</mask>
<g mask="url(#mask0_28_422)">
<g id="Group">
<path id="Vector_2" d="M70.6666 96.6666C70.7541 96.6666 70.8408 96.684 70.9218 96.7175C71.0026 96.751 71.0761 96.8 71.138 96.862C71.2 96.9238 71.249 96.9973 71.2825 97.0781C71.316 97.1591 71.3333 97.2458 71.3333 97.3333C71.3333 97.421 71.316 97.5076 71.2825 97.5885C71.249 97.6693 71.2 97.7428 71.138 97.8048C71.0761 97.8666 71.0026 97.9156 70.9218 97.9491C70.8408 97.9826 70.7541 98 70.6666 98C70.4898 98 70.3203 97.9298 70.1953 97.8048C70.0701 97.6796 70 97.5101 70 97.3333C70 97.1565 70.0701 96.987 70.1953 96.862C70.3203 96.737 70.4898 96.6666 70.6666 96.6666ZM70.6666 93.3333C69.8755 93.3333 69.1021 93.568 68.4443 94.0075C67.7865 94.447 67.274 95.0716 66.9711 95.8026C66.6685 96.5335 66.5891 97.3378 66.7435 98.1136C66.8978 98.8896 67.2788 99.6023 67.8383 100.162C68.3976 100.721 69.1103 101.102 69.8861 101.256C70.6621 101.411 71.4665 101.332 72.1973 101.029C72.9283 100.726 73.553 100.213 73.9925 99.5556C74.432 98.8978 74.6666 98.1245 74.6666 97.3333C74.6666 96.8081 74.5631 96.2878 74.3621 95.8026C74.1611 95.3173 73.8665 94.8763 73.495 94.5048C73.1236 94.1335 72.6826 93.8388 72.1973 93.6378C71.7121 93.4368 71.192 93.3333 70.6666 93.3333Z" fill="white"/>
<path id="Vector_3" d="M9.33202 96.6666C9.41957 96.6666 9.50627 96.684 9.58715 96.7175C9.66803 96.751 9.7415 96.8 9.80342 96.862C9.86532 96.9238 9.91457 96.9973 9.94807 97.0781C9.98157 97.1591 9.99873 97.2458 9.99873 97.3333C9.99873 97.421 9.98157 97.5076 9.94807 97.5885C9.91457 97.6693 9.86532 97.7428 9.80342 97.8048C9.7415 97.8666 9.66803 97.9156 9.58715 97.9491C9.50627 97.9826 9.41957 98 9.33202 98C9.24447 98 9.15778 97.9826 9.07688 97.9491C8.996 97.9156 8.92253 97.8666 8.86062 97.8048C8.79872 97.7428 8.74968 97.6693 8.71617 97.5885C8.68267 97.5076 8.66532 97.421 8.66532 97.3333C8.66532 97.2458 8.68267 97.1591 8.71617 97.0781C8.74968 96.9973 8.79872 96.9238 8.86062 96.862C8.92253 96.8 8.996 96.751 9.07688 96.7175C9.15778 96.684 9.24447 96.6666 9.33202 96.6666ZM9.33202 93.3333C8.5409 93.3333 7.76753 93.568 7.10973 94.0075C6.45193 94.447 5.9393 95.0716 5.63655 95.8026C5.3338 96.5335 5.25453 97.3378 5.40888 98.1136C5.56322 98.8896 5.94423 99.6023 6.50365 100.162C7.06307 100.721 7.77587 101.102 8.55178 101.256C9.32772 101.411 10.1319 101.332 10.8628 101.029C11.5937 100.726 12.2185 100.213 12.658 99.5556C13.0976 98.8978 13.3321 98.1245 13.3321 97.3333C13.3321 96.2725 12.9107 95.255 12.1606 94.5048C11.4105 93.7548 10.3929 93.3333 9.33202 93.3333Z" fill="white"/>
<path id="Vector_4" d="M9.33202 8.66671C9.50883 8.66671 9.67838 8.73694 9.80342 8.86197C9.92843 8.98699 9.99873 9.15656 9.99873 9.33337C9.99873 9.51017 9.92843 9.67974 9.80342 9.80476C9.67838 9.92979 9.50883 10 9.33202 10C9.1552 10 8.98565 9.92979 8.86062 9.80476C8.7356 9.67974 8.66532 9.51017 8.66532 9.33337C8.66532 9.15656 8.7356 8.98699 8.86062 8.86197C8.98565 8.73694 9.1552 8.66671 9.33202 8.66671ZM9.33202 5.33337C8.5409 5.33337 7.76753 5.56794 7.10973 6.00746C6.45193 6.44699 5.9393 7.07171 5.63655 7.80261C5.3338 8.53351 5.25453 9.33777 5.40888 10.1137C5.56322 10.8896 5.94423 11.6024 6.50365 12.1618C7.06307 12.7212 7.77587 13.1022 8.55178 13.2565C9.32772 13.4108 10.1319 13.3316 10.8628 13.0289C11.5937 12.7261 12.2185 12.2135 12.658 11.5557C13.0976 10.8979 13.3321 10.1245 13.3321 9.33337C13.3321 8.27251 12.9107 7.25509 12.1606 6.50494C11.4105 5.75481 10.3929 5.33337 9.33202 5.33337Z" fill="white"/>
<path id="Vector_5" d="M70.6666 8.66671C70.8435 8.66671 71.013 8.73694 71.138 8.86197C71.263 8.98699 71.3333 9.15656 71.3333 9.33337C71.3333 9.51017 71.263 9.67974 71.138 9.80476C71.013 9.92979 70.8435 10 70.6666 10C70.4898 10 70.3203 9.92979 70.1953 9.80476C70.0701 9.67974 70 9.51017 70 9.33337C70 9.15656 70.0701 8.98699 70.1953 8.86197C70.3203 8.73694 70.4898 8.66671 70.6666 8.66671ZM70.6666 5.33337C69.8755 5.33337 69.1021 5.56794 68.4443 6.00746C67.7865 6.44699 67.274 7.07171 66.9711 7.80261C66.6685 8.53351 66.5891 9.33777 66.7435 10.1137C66.8978 10.8896 67.2788 11.6024 67.8383 12.1618C68.3976 12.7212 69.1103 13.1022 69.8861 13.2565C70.6621 13.4108 71.4665 13.3316 72.1973 13.0289C72.9283 12.7261 73.553 12.2135 73.9925 11.5557C74.432 10.8979 74.6666 10.1245 74.6666 9.33337C74.6666 8.80807 74.5631 8.28791 74.3621 7.80261C74.1611 7.31731 73.8665 6.87637 73.495 6.50494C73.1236 6.13351 72.6826 5.83886 72.1973 5.63784C71.7121 5.43682 71.192 5.33337 70.6666 5.33337Z" fill="white"/>
<path id="Vector_6" d="M57.9988 3.33326V5.99995H21.9986V3.33326H57.9988ZM58.6653 -6.93116e-05H21.3321C20.625 -6.93116e-05 19.9465 0.28088 19.4463 0.780978C18.9463 1.28107 18.6653 1.95936 18.6653 2.66661V6.6666C18.6653 7.37385 18.9463 8.05213 19.4463 8.55223C19.9465 9.05233 20.625 9.33328 21.3321 9.33328H58.6653C59.3726 9.33328 60.051 9.05233 60.5511 8.55223C61.0511 8.05213 61.3321 7.37385 61.3321 6.6666V2.66661C61.3343 2.3158 61.2668 1.96805 61.1336 1.64351C61.0003 1.31897 60.8041 1.02411 60.556 0.776043C60.3079 0.527978 60.013 0.331625 59.6884 0.198396C59.3639 0.065168 59.0161 -0.00228269 58.6653 -6.93116e-05Z" fill="white"/>
<path id="Vector_7" d="M57.9988 36.6666V82H21.9986V36.6666H57.9988ZM58.6653 33.3333H21.3321C20.625 33.3333 19.9465 33.6141 19.4463 34.1143C18.9463 34.6145 18.6653 35.2926 18.6653 35.9998V82.6665C18.6653 83.3738 18.9463 84.0521 19.4463 84.5523C19.9465 85.0523 20.625 85.3333 21.3321 85.3333H58.6653C59.0155 85.3333 59.3623 85.2643 59.6858 85.1303C60.0093 84.9961 60.3035 84.7998 60.5511 84.5523C60.7988 84.3046 60.9951 84.0106 61.1291 83.6871C61.2631 83.3635 61.3321 83.0168 61.3321 82.6665V35.9998C61.3343 35.6491 61.2668 35.3013 61.1336 34.9768C61.0003 34.6523 60.8041 34.3575 60.556 34.1095C60.3079 33.8613 60.013 33.665 59.6884 33.5318C59.3639 33.3985 59.0161 33.331 58.6653 33.3333Z" fill="white"/>
<path id="Vector_8" d="M76.6667 3.33333V103.333H3.33333V3.33333H76.6667ZM77.3333 0H2.66663C1.95938 0 1.28114 0.28095 0.781047 0.781047C0.28095 1.28114 0 1.95943 0 2.66668V104.067C0 104.774 0.28095 105.452 0.781047 105.952C1.28114 106.452 1.95938 106.733 2.66663 106.733H77.3333C78.0407 106.733 78.7188 106.452 79.219 105.952C79.719 105.452 80 104.774 80 104.067V2.73335C80.0022 2.38255 79.9348 2.03478 79.8017 1.71025C79.6683 1.38572 79.4718 1.09086 79.2238 0.842793C78.9758 0.594728 78.681 0.398375 78.3565 0.265147C78.032 0.131918 77.6842 0.0644675 77.3333 0.0666808V0Z" fill="white"/>
</g>
</g>
</g>
</g>
<defs>
<clipPath id="clip0_28_422">
<rect width="80" height="106.667" fill="white"/>
</clipPath>
</defs>
</svg>
