<svg width="99" height="99" viewBox="0 0 99 99" fill="none" xmlns="http://www.w3.org/2000/svg">
<g id="configurator-1 1" clip-path="url(#clip0_28_25)">
<path id="Vector" fill-rule="evenodd" clip-rule="evenodd" d="M0.82505 31.35H5.77498C5.99377 31.35 6.20361 31.437 6.35832 31.5917C6.51304 31.7464 6.60002 31.9562 6.60002 32.175V33.825C6.60002 34.0438 6.51304 34.2536 6.35832 34.4083C6.20361 34.563 5.99377 34.65 5.77498 34.65H0.82505C0.606247 34.65 0.396417 34.563 0.2417 34.4083C0.0869816 34.2536 0 34.0438 0 33.825V32.175C0 31.9562 0.0869816 31.7464 0.2417 31.5917C0.396417 31.437 0.606247 31.35 0.82505 31.35Z" fill="white"/>
<path id="Vector_2" fill-rule="evenodd" clip-rule="evenodd" d="M0.82505 23.1H5.77498C5.99377 23.1 6.20361 23.187 6.35832 23.3417C6.51304 23.4964 6.60002 23.7062 6.60002 23.925V25.575C6.60002 25.7938 6.51304 26.0036 6.35832 26.1583C6.20361 26.313 5.99377 26.4 5.77498 26.4H0.82505C0.606247 26.4 0.396417 26.313 0.2417 26.1583C0.0869816 26.0036 0 25.7938 0 25.575V23.925C0 23.7062 0.0869816 23.4964 0.2417 23.3417C0.396417 23.187 0.606247 23.1 0.82505 23.1Z" fill="white"/>
<path id="Vector_3" fill-rule="evenodd" clip-rule="evenodd" d="M0.82505 14.85H5.77498C5.99377 14.85 6.20361 14.9369 6.35832 15.0916C6.51304 15.2464 6.60002 15.4562 6.60002 15.675V17.325C6.60002 17.5438 6.51304 17.7536 6.35832 17.9083C6.20361 18.0631 5.99377 18.15 5.77498 18.15H0.82505C0.606247 18.15 0.396417 18.0631 0.2417 17.9083C0.0869816 17.7536 0 17.5438 0 17.325V15.675C0 15.4562 0.0869816 15.2464 0.2417 15.0916C0.396417 14.9369 0.606247 14.85 0.82505 14.85Z" fill="white"/>
<path id="Vector_4" fill-rule="evenodd" clip-rule="evenodd" d="M0.82505 47.85H5.77498C5.99377 47.85 6.20361 47.937 6.35832 48.0917C6.51304 48.2464 6.60002 48.4562 6.60002 48.675V50.325C6.60002 50.5438 6.51304 50.7536 6.35832 50.9083C6.20361 51.063 5.99377 51.15 5.77498 51.15H0.82505C0.606247 51.15 0.396417 51.063 0.2417 50.9083C0.0869816 50.7536 0 50.5438 0 50.325V48.675C0 48.4562 0.0869816 48.2464 0.2417 48.0917C0.396417 47.937 0.606247 47.85 0.82505 47.85Z" fill="white"/>
<path id="Vector_5" fill-rule="evenodd" clip-rule="evenodd" d="M0.82505 39.6H5.77498C5.99377 39.6 6.20361 39.687 6.35832 39.8417C6.51304 39.9964 6.60002 40.2062 6.60002 40.425V42.075C6.60002 42.2938 6.51304 42.5036 6.35832 42.6583C6.20361 42.813 5.99377 42.9 5.77498 42.9H0.82505C0.606247 42.9 0.396417 42.813 0.2417 42.6583C0.0869816 42.5036 0 42.2938 0 42.075V40.425C0 40.2062 0.0869816 39.9964 0.2417 39.8417C0.396417 39.687 0.606247 39.6 0.82505 39.6Z" fill="white"/>
<path id="Vector_6" fill-rule="evenodd" clip-rule="evenodd" d="M0.82505 64.35H5.77498C5.99377 64.35 6.20361 64.437 6.35832 64.5917C6.51304 64.7464 6.60002 64.9562 6.60002 65.175V66.825C6.60002 67.0438 6.51304 67.2536 6.35832 67.4083C6.20361 67.563 5.99377 67.65 5.77498 67.65H0.82505C0.606247 67.65 0.396417 67.563 0.2417 67.4083C0.0869816 67.2536 0 67.0438 0 66.825V65.175C0 64.9562 0.0869816 64.7464 0.2417 64.5917C0.396417 64.437 0.606247 64.35 0.82505 64.35Z" fill="white"/>
<path id="Vector_7" fill-rule="evenodd" clip-rule="evenodd" d="M0.82505 56.1H5.77498C5.99377 56.1 6.20361 56.187 6.35832 56.3417C6.51304 56.4964 6.60002 56.7062 6.60002 56.925V58.575C6.60002 58.7938 6.51304 59.0036 6.35832 59.1583C6.20361 59.313 5.99377 59.4 5.77498 59.4H0.82505C0.606247 59.4 0.396417 59.313 0.2417 59.1583C0.0869816 59.0036 0 58.7938 0 58.575V56.925C0 56.7062 0.0869816 56.4964 0.2417 56.3417C0.396417 56.187 0.606247 56.1 0.82505 56.1Z" fill="white"/>
<path id="Vector_8" fill-rule="evenodd" clip-rule="evenodd" d="M0.82505 47.85H5.77498C5.99377 47.85 6.20361 47.937 6.35832 48.0917C6.51304 48.2464 6.60002 48.4562 6.60002 48.675V50.325C6.60002 50.5438 6.51304 50.7536 6.35832 50.9083C6.20361 51.063 5.99377 51.15 5.77498 51.15H0.82505C0.606247 51.15 0.396417 51.063 0.2417 50.9083C0.0869816 50.7536 0 50.5438 0 50.325V48.675C0 48.4562 0.0869816 48.2464 0.2417 48.0917C0.396417 47.937 0.606247 47.85 0.82505 47.85Z" fill="white"/>
<path id="Vector_9" fill-rule="evenodd" clip-rule="evenodd" d="M0.82505 80.85H5.77498C5.99377 80.85 6.20361 80.937 6.35832 81.0917C6.51304 81.2464 6.60002 81.4562 6.60002 81.675V83.325C6.60002 83.5438 6.51304 83.7536 6.35832 83.9083C6.20361 84.063 5.99377 84.15 5.77498 84.15H0.82505C0.606247 84.15 0.396417 84.063 0.2417 83.9083C0.0869816 83.7536 0 83.5438 0 83.325V81.675C0 81.4562 0.0869816 81.2464 0.2417 81.0917C0.396417 80.937 0.606247 80.85 0.82505 80.85Z" fill="white"/>
<path id="Vector_10" fill-rule="evenodd" clip-rule="evenodd" d="M0.82505 72.6H5.77498C5.99377 72.6 6.20361 72.687 6.35832 72.8417C6.51304 72.9964 6.60002 73.2062 6.60002 73.425V75.075C6.60002 75.2938 6.51304 75.5036 6.35832 75.6583C6.20361 75.813 5.99377 75.9 5.77498 75.9H0.82505C0.606247 75.9 0.396417 75.813 0.2417 75.6583C0.0869816 75.5036 0 75.2938 0 75.075V73.425C0 73.2062 0.0869816 72.9964 0.2417 72.8417C0.396417 72.687 0.606247 72.6 0.82505 72.6Z" fill="white"/>
<path id="Vector_11" fill-rule="evenodd" clip-rule="evenodd" d="M93.2266 64.35H98.1766C98.3954 64.35 98.6052 64.437 98.7599 64.5917C98.9146 64.7464 99.0016 64.9562 99.0016 65.175V66.825C99.0016 67.0438 98.9146 67.2536 98.7599 67.4083C98.6052 67.563 98.3954 67.65 98.1766 67.65H93.2266C93.0078 67.65 92.798 67.563 92.6433 67.4083C92.4886 67.2536 92.4016 67.0438 92.4016 66.825V65.175C92.4016 64.9562 92.4886 64.7464 92.6433 64.5917C92.798 64.437 93.0078 64.35 93.2266 64.35Z" fill="white"/>
<path id="Vector_12" fill-rule="evenodd" clip-rule="evenodd" d="M93.2266 56.1H98.1766C98.3954 56.1 98.6052 56.187 98.7599 56.3417C98.9146 56.4964 99.0016 56.7062 99.0016 56.925V58.575C99.0016 58.7938 98.9146 59.0036 98.7599 59.1583C98.6052 59.313 98.3954 59.4 98.1766 59.4H93.2266C93.0078 59.4 92.798 59.313 92.6433 59.1583C92.4886 59.0036 92.4016 58.7938 92.4016 58.575V56.925C92.4016 56.7062 92.4886 56.4964 92.6433 56.3417C92.798 56.187 93.0078 56.1 93.2266 56.1Z" fill="white"/>
<path id="Vector_13" fill-rule="evenodd" clip-rule="evenodd" d="M93.2266 47.85H98.1766C98.3954 47.85 98.6052 47.937 98.7599 48.0917C98.9146 48.2464 99.0016 48.4562 99.0016 48.675V50.325C99.0016 50.5438 98.9146 50.7536 98.7599 50.9083C98.6052 51.063 98.3954 51.15 98.1766 51.15H93.2266C93.0078 51.15 92.798 51.063 92.6433 50.9083C92.4886 50.7536 92.4016 50.5438 92.4016 50.325V48.675C92.4016 48.4562 92.4886 48.2464 92.6433 48.0917C92.798 47.937 93.0078 47.85 93.2266 47.85Z" fill="white"/>
<path id="Vector_14" fill-rule="evenodd" clip-rule="evenodd" d="M93.2266 80.85H98.1766C98.3954 80.85 98.6052 80.937 98.7599 81.0917C98.9146 81.2464 99.0016 81.4562 99.0016 81.675V83.325C99.0016 83.5438 98.9146 83.7536 98.7599 83.9083C98.6052 84.063 98.3954 84.15 98.1766 84.15H93.2266C93.0078 84.15 92.798 84.063 92.6433 83.9083C92.4886 83.7536 92.4016 83.5438 92.4016 83.325V81.675C92.4016 81.4562 92.4886 81.2464 92.6433 81.0917C92.798 80.937 93.0078 80.85 93.2266 80.85Z" fill="white"/>
<path id="Vector_15" fill-rule="evenodd" clip-rule="evenodd" d="M93.2266 72.6H98.1766C98.3954 72.6 98.6052 72.687 98.7599 72.8417C98.9146 72.9964 99.0016 73.2062 99.0016 73.425V75.075C99.0016 75.2938 98.9146 75.5036 98.7599 75.6583C98.6052 75.813 98.3954 75.9 98.1766 75.9H93.2266C93.0078 75.9 92.798 75.813 92.6433 75.6583C92.4886 75.5036 92.4016 75.2938 92.4016 75.075V73.425C92.4016 73.2062 92.4886 72.9964 92.6433 72.8417C92.798 72.687 93.0078 72.6 93.2266 72.6Z" fill="white"/>
<path id="Vector_16" fill-rule="evenodd" clip-rule="evenodd" d="M93.2266 31.35H98.1766C98.3954 31.35 98.6052 31.437 98.7599 31.5917C98.9146 31.7464 99.0016 31.9562 99.0016 32.175V33.825C99.0016 34.0438 98.9146 34.2536 98.7599 34.4083C98.6052 34.563 98.3954 34.65 98.1766 34.65H93.2266C93.0078 34.65 92.798 34.563 92.6433 34.4083C92.4886 34.2536 92.4016 34.0438 92.4016 33.825V32.175C92.4016 31.9562 92.4886 31.7464 92.6433 31.5917C92.798 31.437 93.0078 31.35 93.2266 31.35Z" fill="white"/>
<path id="Vector_17" fill-rule="evenodd" clip-rule="evenodd" d="M93.2266 23.1H98.1766C98.3954 23.1 98.6052 23.187 98.7599 23.3417C98.9146 23.4964 99.0016 23.7062 99.0016 23.925V25.575C99.0016 25.7938 98.9146 26.0036 98.7599 26.1583C98.6052 26.313 98.3954 26.4 98.1766 26.4H93.2266C93.0078 26.4 92.798 26.313 92.6433 26.1583C92.4886 26.0036 92.4016 25.7938 92.4016 25.575V23.925C92.4016 23.7062 92.4886 23.4964 92.6433 23.3417C92.798 23.187 93.0078 23.1 93.2266 23.1Z" fill="white"/>
<path id="Vector_18" fill-rule="evenodd" clip-rule="evenodd" d="M93.2266 14.85H98.1766C98.3954 14.85 98.6052 14.9369 98.7599 15.0916C98.9146 15.2464 99.0016 15.4562 99.0016 15.675V17.325C99.0016 17.5438 98.9146 17.7536 98.7599 17.9083C98.6052 18.0631 98.3954 18.15 98.1766 18.15H93.2266C93.0078 18.15 92.798 18.0631 92.6433 17.9083C92.4886 17.7536 92.4016 17.5438 92.4016 17.325V15.675C92.4016 15.4562 92.4886 15.2464 92.6433 15.0916C92.798 14.9369 93.0078 14.85 93.2266 14.85Z" fill="white"/>
<path id="Vector_19" fill-rule="evenodd" clip-rule="evenodd" d="M93.2266 47.85H98.1766C98.3954 47.85 98.6052 47.937 98.7599 48.0917C98.9146 48.2464 99.0016 48.4562 99.0016 48.675V50.325C99.0016 50.5438 98.9146 50.7536 98.7599 50.9083C98.6052 51.063 98.3954 51.15 98.1766 51.15H93.2266C93.0078 51.15 92.798 51.063 92.6433 50.9083C92.4886 50.7536 92.4016 50.5438 92.4016 50.325V48.675C92.4016 48.4562 92.4886 48.2464 92.6433 48.0917C92.798 47.937 93.0078 47.85 93.2266 47.85Z" fill="white"/>
<path id="Vector_20" fill-rule="evenodd" clip-rule="evenodd" d="M93.2266 39.6H98.1766C98.3954 39.6 98.6052 39.687 98.7599 39.8417C98.9146 39.9964 99.0016 40.2062 99.0016 40.425V42.075C99.0016 42.2938 98.9146 42.5036 98.7599 42.6583C98.6052 42.813 98.3954 42.9 98.1766 42.9H93.2266C93.0078 42.9 92.798 42.813 92.6433 42.6583C92.4886 42.5036 92.4016 42.2938 92.4016 42.075V40.425C92.4016 40.2062 92.4886 39.9964 92.6433 39.8417C92.798 39.687 93.0078 39.6 93.2266 39.6Z" fill="white"/>
<path id="Vector_21" fill-rule="evenodd" clip-rule="evenodd" d="M32.1734 92.4H33.8234C34.0422 92.4 34.2522 92.4868 34.4069 92.6415C34.5616 92.7964 34.6484 93.0062 34.6484 93.225V98.175C34.6484 98.3938 34.5616 98.6036 34.4069 98.7583C34.2522 98.9132 34.0422 99 33.8234 99H32.1734C31.9546 99 31.7448 98.9132 31.5899 98.7583C31.4352 98.6036 31.3484 98.3938 31.3484 98.175V93.225C31.3484 93.0062 31.4352 92.7964 31.5899 92.6415C31.7448 92.4868 31.9546 92.4 32.1734 92.4Z" fill="white"/>
<path id="Vector_22" fill-rule="evenodd" clip-rule="evenodd" d="M40.4234 92.4H42.0734C42.2922 92.4 42.5022 92.4868 42.6569 92.6415C42.8116 92.7964 42.8984 93.0062 42.8984 93.225V98.175C42.8984 98.3938 42.8116 98.6036 42.6569 98.7583C42.5022 98.9132 42.2922 99 42.0734 99H40.4234C40.2046 99 39.9948 98.9132 39.8399 98.7583C39.6852 98.6036 39.5984 98.3938 39.5984 98.175V93.225C39.5984 93.0062 39.6852 92.7964 39.8399 92.6415C39.9948 92.4868 40.2046 92.4 40.4234 92.4Z" fill="white"/>
<path id="Vector_23" fill-rule="evenodd" clip-rule="evenodd" d="M48.6734 92.4H50.3234C50.5422 92.4 50.7522 92.4868 50.9069 92.6415C51.0616 92.7964 51.1484 93.0062 51.1484 93.225V98.175C51.1484 98.3938 51.0616 98.6036 50.9069 98.7583C50.7522 98.9132 50.5422 99 50.3234 99H48.6734C48.4546 99 48.2448 98.9132 48.0899 98.7583C47.9352 98.6036 47.8484 98.3938 47.8484 98.175V93.225C47.8484 93.0062 47.9352 92.7964 48.0899 92.6415C48.2448 92.4868 48.4546 92.4 48.6734 92.4Z" fill="white"/>
<path id="Vector_24" fill-rule="evenodd" clip-rule="evenodd" d="M15.6733 92.4H17.3234C17.5422 92.4 17.752 92.4868 17.9068 92.6415C18.0615 92.7964 18.1483 93.0062 18.1483 93.225V98.175C18.1483 98.3938 18.0615 98.6036 17.9068 98.7583C17.752 98.9132 17.5422 99 17.3234 99H15.6733C15.4545 99 15.2447 98.9132 15.09 98.7583C14.9352 98.6036 14.8484 98.3938 14.8484 98.175V93.225C14.8484 93.0062 14.9352 92.7964 15.09 92.6415C15.2447 92.4868 15.4545 92.4 15.6733 92.4Z" fill="white"/>
<path id="Vector_25" fill-rule="evenodd" clip-rule="evenodd" d="M23.9234 92.4H25.5734C25.7922 92.4 26.0022 92.4868 26.1569 92.6415C26.3116 92.7964 26.3984 93.0062 26.3984 93.225V98.175C26.3984 98.3938 26.3116 98.6036 26.1569 98.7583C26.0022 98.9132 25.7922 99 25.5734 99H23.9234C23.7046 99 23.4948 98.9132 23.3399 98.7583C23.1852 98.6036 23.0984 98.3938 23.0984 98.175V93.225C23.0984 93.0062 23.1852 92.7964 23.3399 92.6415C23.4948 92.4868 23.7046 92.4 23.9234 92.4Z" fill="white"/>
<path id="Vector_26" fill-rule="evenodd" clip-rule="evenodd" d="M65.1734 92.4H66.8234C67.0422 92.4 67.2522 92.4868 67.4069 92.6415C67.5616 92.7964 67.6484 93.0062 67.6484 93.225V98.175C67.6484 98.3938 67.5616 98.6036 67.4069 98.7583C67.2522 98.9132 67.0422 99 66.8234 99H65.1734C64.9546 99 64.7448 98.9132 64.5899 98.7583C64.4352 98.6036 64.3484 98.3938 64.3484 98.175V93.225C64.3484 93.0062 64.4352 92.7964 64.5899 92.6415C64.7448 92.4868 64.9546 92.4 65.1734 92.4Z" fill="white"/>
<path id="Vector_27" fill-rule="evenodd" clip-rule="evenodd" d="M73.4234 92.4H75.0734C75.2922 92.4 75.5022 92.4868 75.6569 92.6415C75.8116 92.7964 75.8984 93.0062 75.8984 93.225V98.175C75.8984 98.3938 75.8116 98.6036 75.6569 98.7583C75.5022 98.9132 75.2922 99 75.0734 99H73.4234C73.2046 99 72.9948 98.9132 72.8399 98.7583C72.6852 98.6036 72.5984 98.3938 72.5984 98.175V93.225C72.5984 93.0062 72.6852 92.7964 72.8399 92.6415C72.9948 92.4868 73.2046 92.4 73.4234 92.4Z" fill="white"/>
<path id="Vector_28" fill-rule="evenodd" clip-rule="evenodd" d="M81.6734 92.4H83.3234C83.5422 92.4 83.7522 92.4868 83.9069 92.6415C84.0616 92.7964 84.1484 93.0062 84.1484 93.225V98.175C84.1484 98.3938 84.0616 98.6036 83.9069 98.7583C83.7522 98.9132 83.5422 99 83.3234 99H81.6734C81.4546 99 81.2448 98.9132 81.0899 98.7583C80.9352 98.6036 80.8484 98.3938 80.8484 98.175V93.225C80.8484 93.0062 80.9352 92.7964 81.0899 92.6415C81.2448 92.4868 81.4546 92.4 81.6734 92.4Z" fill="white"/>
<path id="Vector_29" fill-rule="evenodd" clip-rule="evenodd" d="M48.6734 92.4H50.3234C50.5422 92.4 50.7522 92.4868 50.9069 92.6415C51.0616 92.7964 51.1484 93.0062 51.1484 93.225V98.175C51.1484 98.3938 51.0616 98.6036 50.9069 98.7583C50.7522 98.9132 50.5422 99 50.3234 99H48.6734C48.4546 99 48.2448 98.9132 48.0899 98.7583C47.9352 98.6036 47.8484 98.3938 47.8484 98.175V93.225C47.8484 93.0062 47.9352 92.7964 48.0899 92.6415C48.2448 92.4868 48.4546 92.4 48.6734 92.4Z" fill="white"/>
<path id="Vector_30" fill-rule="evenodd" clip-rule="evenodd" d="M56.9234 92.4H58.5734C58.7922 92.4 59.0022 92.4868 59.1569 92.6415C59.3116 92.7964 59.3984 93.0062 59.3984 93.225V98.175C59.3984 98.3938 59.3116 98.6036 59.1569 98.7583C59.0022 98.9132 58.7922 99 58.5734 99H56.9234C56.7046 99 56.4948 98.9132 56.3399 98.7583C56.1852 98.6036 56.0984 98.3938 56.0984 98.175V93.225C56.0984 93.0062 56.1852 92.7964 56.3399 92.6415C56.4948 92.4868 56.7046 92.4 56.9234 92.4Z" fill="white"/>
<path id="Vector_31" fill-rule="evenodd" clip-rule="evenodd" d="M32.1734 0H33.8234C34.0422 0 34.2522 0.0869187 34.4069 0.241636C34.5616 0.396355 34.6484 0.606183 34.6484 0.824988V5.77498C34.6484 5.99377 34.5616 6.20367 34.4069 6.3584C34.2522 6.51311 34.0422 6.60002 33.8234 6.60002H32.1734C31.9546 6.60002 31.7448 6.51311 31.5899 6.3584C31.4352 6.20367 31.3484 5.99377 31.3484 5.77498V0.824988C31.3484 0.606183 31.4352 0.396355 31.5899 0.241636C31.7448 0.0869187 31.9546 0 32.1734 0Z" fill="white"/>
<path id="Vector_32" fill-rule="evenodd" clip-rule="evenodd" d="M40.4234 0H42.0734C42.2922 0 42.5022 0.0869187 42.6569 0.241636C42.8116 0.396355 42.8984 0.606183 42.8984 0.824988V5.77498C42.8984 5.99377 42.8116 6.20367 42.6569 6.3584C42.5022 6.51311 42.2922 6.60002 42.0734 6.60002H40.4234C40.2046 6.60002 39.9948 6.51311 39.8399 6.3584C39.6852 6.20367 39.5984 5.99377 39.5984 5.77498V0.824988C39.5984 0.606183 39.6852 0.396355 39.8399 0.241636C39.9948 0.0869187 40.2046 0 40.4234 0Z" fill="white"/>
<path id="Vector_33" fill-rule="evenodd" clip-rule="evenodd" d="M48.6734 0H50.3234C50.5422 0 50.7522 0.0869187 50.9069 0.241636C51.0616 0.396355 51.1484 0.606183 51.1484 0.824988V5.77498C51.1484 5.99377 51.0616 6.20367 50.9069 6.3584C50.7522 6.51311 50.5422 6.60002 50.3234 6.60002H48.6734C48.4546 6.60002 48.2448 6.51311 48.0899 6.3584C47.9352 6.20367 47.8484 5.99377 47.8484 5.77498V0.824988C47.8484 0.606183 47.9352 0.396355 48.0899 0.241636C48.2448 0.0869187 48.4546 0 48.6734 0Z" fill="white"/>
<path id="Vector_34" fill-rule="evenodd" clip-rule="evenodd" d="M15.6733 0H17.3234C17.5422 0 17.752 0.0869187 17.9068 0.241636C18.0615 0.396355 18.1483 0.606183 18.1483 0.824988V5.77498C18.1483 5.99377 18.0615 6.20367 17.9068 6.3584C17.752 6.51311 17.5422 6.60002 17.3234 6.60002H15.6733C15.4545 6.60002 15.2447 6.51311 15.09 6.3584C14.9352 6.20367 14.8484 5.99377 14.8484 5.77498V0.824988C14.8484 0.606183 14.9352 0.396355 15.09 0.241636C15.2447 0.0869187 15.4545 0 15.6733 0Z" fill="white"/>
<path id="Vector_35" fill-rule="evenodd" clip-rule="evenodd" d="M23.9234 0H25.5734C25.7922 0 26.0022 0.0869187 26.1569 0.241636C26.3116 0.396355 26.3984 0.606183 26.3984 0.824988V5.77498C26.3984 5.99377 26.3116 6.20367 26.1569 6.3584C26.0022 6.51311 25.7922 6.60002 25.5734 6.60002H23.9234C23.7046 6.60002 23.4948 6.51311 23.3399 6.3584C23.1852 6.20367 23.0984 5.99377 23.0984 5.77498V0.824988C23.0984 0.606183 23.1852 0.396355 23.3399 0.241636C23.4948 0.0869187 23.7046 0 23.9234 0Z" fill="white"/>
<path id="Vector_36" fill-rule="evenodd" clip-rule="evenodd" d="M65.1734 0H66.8234C67.0422 0 67.2522 0.0869187 67.4069 0.241636C67.5616 0.396355 67.6484 0.606183 67.6484 0.824988V5.77498C67.6484 5.99377 67.5616 6.20367 67.4069 6.3584C67.2522 6.51311 67.0422 6.60002 66.8234 6.60002H65.1734C64.9546 6.60002 64.7448 6.51311 64.5899 6.3584C64.4352 6.20367 64.3484 5.99377 64.3484 5.77498V0.824988C64.3484 0.606183 64.4352 0.396355 64.5899 0.241636C64.7448 0.0869187 64.9546 0 65.1734 0Z" fill="white"/>
<path id="Vector_37" fill-rule="evenodd" clip-rule="evenodd" d="M73.4234 0H75.0734C75.2922 0 75.5022 0.0869187 75.6569 0.241636C75.8116 0.396355 75.8984 0.606183 75.8984 0.824988V5.77498C75.8984 5.99377 75.8116 6.20367 75.6569 6.3584C75.5022 6.51311 75.2922 6.60002 75.0734 6.60002H73.4234C73.2046 6.60002 72.9948 6.51311 72.8399 6.3584C72.6852 6.20367 72.5984 5.99377 72.5984 5.77498V0.824988C72.5984 0.606183 72.6852 0.396355 72.8399 0.241636C72.9948 0.0869187 73.2046 0 73.4234 0Z" fill="white"/>
<path id="Vector_38" fill-rule="evenodd" clip-rule="evenodd" d="M81.6734 0H83.3234C83.5422 0 83.7522 0.0869187 83.9069 0.241636C84.0616 0.396355 84.1484 0.606183 84.1484 0.824988V5.77498C84.1484 5.99377 84.0616 6.20367 83.9069 6.3584C83.7522 6.51311 83.5422 6.60002 83.3234 6.60002H81.6734C81.4546 6.60002 81.2448 6.51311 81.0899 6.3584C80.9352 6.20367 80.8484 5.99377 80.8484 5.77498V0.824988C80.8484 0.606183 80.9352 0.396355 81.0899 0.241636C81.2448 0.0869187 81.4546 0 81.6734 0Z" fill="white"/>
<path id="Vector_39" fill-rule="evenodd" clip-rule="evenodd" d="M48.6734 0H50.3234C50.5422 0 50.7522 0.0869187 50.9069 0.241636C51.0616 0.396355 51.1484 0.606183 51.1484 0.824988V5.77498C51.1484 5.99377 51.0616 6.20367 50.9069 6.3584C50.7522 6.51311 50.5422 6.60002 50.3234 6.60002H48.6734C48.4546 6.60002 48.2448 6.51311 48.0899 6.3584C47.9352 6.20367 47.8484 5.99377 47.8484 5.77498V0.824988C47.8484 0.606183 47.9352 0.396355 48.0899 0.241636C48.2448 0.0869187 48.4546 0 48.6734 0Z" fill="white"/>
<path id="Vector_40" fill-rule="evenodd" clip-rule="evenodd" d="M56.9234 0H58.5734C58.7922 0 59.0022 0.0869187 59.1569 0.241636C59.3116 0.396355 59.3984 0.606183 59.3984 0.824988V5.77498C59.3984 5.99377 59.3116 6.20367 59.1569 6.3584C59.0022 6.51311 58.7922 6.60002 58.5734 6.60002H56.9234C56.7046 6.60002 56.4948 6.51311 56.3399 6.3584C56.1852 6.20367 56.0984 5.99377 56.0984 5.77498V0.824988C56.0984 0.606183 56.1852 0.396355 56.3399 0.241636C56.4948 0.0869187 56.7046 0 56.9234 0Z" fill="white"/>
<path id="Vector_41" d="M84.1508 9.07504C85.6806 9.08049 87.1464 9.6907 88.2282 10.7725C89.3102 11.8544 89.9203 13.3201 89.9256 14.8501V84.15C89.9203 85.68 89.3102 87.1458 88.2282 88.2276C87.1464 89.3093 85.6806 89.9196 84.1508 89.925H14.8508C13.3208 89.9196 11.8551 89.3093 10.7732 88.2276C9.6914 87.1458 9.08125 85.68 9.07581 84.15V14.8501C9.08125 13.3201 9.6914 11.8544 10.7732 10.7725C11.8551 9.6907 13.3208 9.08049 14.8508 9.07504H84.1508ZM84.1508 4.95004H14.8508C12.2251 4.95004 9.70706 5.99307 7.85043 7.84969C5.99383 9.70629 4.95081 12.2244 4.95081 14.8501V84.15C4.95081 86.7758 5.99383 89.2939 7.85043 91.1505C9.70706 93.007 12.2251 94.05 14.8508 94.05H84.1508C86.7764 94.05 89.2945 93.007 91.1512 91.1505C93.0076 89.2939 94.0506 86.7758 94.0506 84.15V14.8501C94.0506 12.2244 93.0076 9.70629 91.1512 7.84969C89.2945 5.99307 86.7764 4.95004 84.1508 4.95004Z" fill="white"/>
<path id="Vector_42" d="M62.7008 33.825C63.0259 33.825 63.3476 33.8892 63.6479 34.0135C63.948 34.1379 64.2211 34.3202 64.4508 34.55C64.6806 34.7797 64.8629 35.0526 64.9873 35.3529C65.1117 35.6532 65.1756 35.9752 65.1756 36.3V62.7C65.1756 63.0251 65.1117 63.347 64.9873 63.6473C64.8629 63.9474 64.6806 64.2203 64.4508 64.4502C64.2211 64.68 63.948 64.8623 63.6479 64.9867C63.3476 65.1111 63.0259 65.175 62.7008 65.175H36.3006C35.6443 65.175 35.0148 64.9143 34.5506 64.4502C34.0865 63.986 33.8258 63.3565 33.8258 62.7V36.3C33.8258 35.6437 34.0865 35.014 34.5506 34.55C35.0148 34.0859 35.6443 33.825 36.3006 33.825H62.7008ZM62.7008 29.7H36.3006C34.5502 29.7 32.8717 30.3955 31.6338 31.6332C30.3961 32.8709 29.7008 34.5496 29.7008 36.3V62.7C29.7008 64.4505 30.3961 66.1293 31.6338 67.367C32.8717 68.6047 34.5502 69.3 36.3006 69.3H62.7008C64.4513 69.3 66.1299 68.6047 67.3676 67.367C68.6053 66.1293 69.3006 64.4505 69.3006 62.7V36.3C69.3006 34.5496 68.6053 32.8709 67.3676 31.6332C66.1299 30.3955 64.4513 29.7 62.7008 29.7Z" fill="white"/>
</g>
<defs>
<clipPath id="clip0_28_25">
<rect width="99" height="99" fill="white"/>
</clipPath>
</defs>
</svg>
