<svg width="99" height="66" viewBox="0 0 99 66" fill="none" xmlns="http://www.w3.org/2000/svg">
<g id="configurator-8 1" clip-path="url(#clip0_28_385)">
<g id="Clip path group">
<mask id="mask0_28_385" style="mask-type:luminance" maskUnits="userSpaceOnUse" x="0" y="0" width="99" height="66">
<g id="clip0">
<path id="Vector" d="M99 0H0V66H99V0Z" fill="white"/>
</g>
</mask>
<g mask="url(#mask0_28_385)">
<g id="Group">
<path id="Vector_2" d="M72.5984 24.75L77.5896 33.9075L82.0859 29.0813L72.5984 24.75Z" fill="white"/>
<path id="Vector_3" d="M67.6079 15.5926L63.1117 20.4189L72.5992 24.7502L67.6079 15.5926Z" fill="white"/>
<path id="Vector_4" d="M77.2596 15.4068L72.5984 24.75L81.9415 20.0887L77.2596 15.4068Z" fill="white"/>
<path id="Vector_5" d="M72.5998 24.75L63.2567 29.4113L67.9386 34.0931L72.5998 24.75Z" fill="white"/>
<path id="Vector_6" d="M82.4984 21.45L72.5984 24.75L82.4984 28.05V21.45Z" fill="white"/>
<path id="Vector_7" d="M62.7008 21.45V28.05L72.6008 24.75L62.7008 21.45Z" fill="white"/>
<path id="Vector_8" d="M75.8992 14.8499H69.2992L72.5992 24.75L75.8992 14.8499Z" fill="white"/>
<path id="Vector_9" d="M72.5992 24.75L69.2992 34.65H75.8992L72.5992 24.75Z" fill="white"/>
<path id="Vector_10" d="M72.5994 21.45C71.9467 21.45 71.3087 21.6437 70.7661 22.0063C70.2234 22.3689 69.8002 22.8843 69.5504 23.4874C69.3007 24.0902 69.2353 24.7537 69.3625 25.3939C69.49 26.0341 69.8045 26.6219 70.2659 27.0835C70.7275 27.5451 71.3155 27.8592 71.9557 27.9867C72.5957 28.1139 73.2592 28.0486 73.8623 27.7988C74.4654 27.549 74.9806 27.126 75.3432 26.5834C75.7058 26.0407 75.8994 25.4028 75.8994 24.75C75.8994 23.8749 75.5517 23.0355 74.9327 22.4167C74.314 21.7978 73.4746 21.45 72.5994 21.45Z" fill="white"/>
<path id="Vector_11" d="M72.5986 12.375C75.0462 12.375 77.4385 13.1008 79.4735 14.4605C81.5086 15.8203 83.0949 17.753 84.0314 20.0143C84.968 22.2754 85.2131 24.7638 84.7356 27.1644C84.2581 29.5647 83.0798 31.7697 81.349 33.5004C79.6183 35.2312 77.4133 36.4097 75.0128 36.8872C72.6122 37.3647 70.124 37.1196 67.8627 36.1831C65.6016 35.2465 63.6688 33.6602 62.309 31.6251C60.9492 29.5901 60.2236 27.1976 60.2236 24.75C60.2236 21.4679 61.5273 18.3203 63.848 15.9995C66.1688 13.6788 69.3165 12.375 72.5986 12.375ZM72.5986 8.25C69.3351 8.25 66.145 9.21768 63.4316 11.0307C60.7182 12.8438 58.6033 15.4208 57.3545 18.4357C56.1056 21.4506 55.7789 24.7684 56.4156 27.9689C57.0521 31.1695 58.6237 34.1096 60.9312 36.4171C63.2388 38.7249 66.1786 40.2963 69.3794 40.933C72.58 41.5697 75.8978 41.2428 78.9127 39.9939C81.9277 38.7451 84.5046 36.6302 86.3177 33.9168C88.1309 31.2036 89.0986 28.0133 89.0986 24.75C89.0986 20.3739 87.3601 16.1771 84.2657 13.0827C81.1714 9.98838 76.9746 8.25 72.5986 8.25Z" fill="white"/>
<path id="Vector_12" d="M33 24.75L37.9913 33.9075L42.4875 29.0813L33 24.75Z" fill="white"/>
<path id="Vector_13" d="M28.0096 15.5926L23.5133 20.4189L33.0008 24.7502L28.0096 15.5926Z" fill="white"/>
<path id="Vector_14" d="M37.6613 15.4068L33 24.75L42.3431 20.0887L37.6613 15.4068Z" fill="white"/>
<path id="Vector_15" d="M33.0014 24.75L23.6583 29.4113L28.3402 34.0931L33.0014 24.75Z" fill="white"/>
<path id="Vector_16" d="M42.9 21.45L33 24.75L42.9 28.05V21.45Z" fill="white"/>
<path id="Vector_17" d="M23.0984 21.45V28.05L32.9984 24.75L23.0984 21.45Z" fill="white"/>
<path id="Vector_18" d="M36.3008 14.8499H29.7008L33.0008 24.75L36.3008 14.8499Z" fill="white"/>
<path id="Vector_19" d="M33.0008 24.75L29.7008 34.65H36.3008L33.0008 24.75Z" fill="white"/>
<path id="Vector_20" d="M33.0006 21.45C32.3481 21.45 31.7099 21.6437 31.1673 22.0063C30.6246 22.3689 30.2018 22.8843 29.952 23.4874C29.7023 24.0902 29.6369 24.7537 29.7642 25.3939C29.8916 26.0341 30.2057 26.6219 30.6673 27.0835C31.1289 27.5451 31.7167 27.8592 32.3569 27.9867C32.9971 28.1139 33.6606 28.0486 34.2635 27.7988C34.8666 27.549 35.3822 27.126 35.7448 26.5834C36.1074 26.0407 36.3008 25.4028 36.3008 24.75C36.3008 23.8749 35.9533 23.0355 35.3343 22.4167C34.7156 21.7978 33.876 21.45 33.0006 21.45Z" fill="white"/>
<path id="Vector_21" d="M32.9998 12.375C35.4474 12.375 37.8401 13.1008 39.8751 14.4605C41.9102 15.8203 43.4963 17.753 44.4331 20.0143C45.3696 22.2754 45.6147 24.7638 45.1372 27.1644C44.6597 29.5647 43.481 31.7697 41.7504 33.5004C40.0197 35.2312 37.8149 36.4097 35.4144 36.8872C33.0138 37.3647 30.5256 37.1196 28.2643 36.1831C26.003 35.2465 24.0702 33.6602 22.7106 31.6251C21.3508 29.5901 20.6248 27.1976 20.6248 24.75C20.6248 21.4679 21.9289 18.3203 24.2496 15.9995C26.5704 13.6788 29.7177 12.375 32.9998 12.375ZM32.9998 8.25C29.7365 8.25 26.5466 9.21768 23.8332 11.0307C21.1198 12.8438 19.0048 15.4208 17.7559 18.4357C16.5071 21.4506 16.1804 24.7684 16.8171 27.9689C17.4537 31.1695 19.025 34.1096 21.3326 36.4171C23.6402 38.7249 26.5803 40.2963 29.7811 40.933C32.9816 41.5697 36.2992 41.2428 39.3141 39.9939C42.3293 38.7451 44.9062 36.6302 46.7193 33.9168C48.5323 31.2036 49.4998 28.0133 49.4998 24.75C49.4998 20.3739 47.7615 16.1771 44.6672 13.0827C41.5728 9.98838 37.376 8.25 32.9998 8.25Z" fill="white"/>
<path id="Vector_22" d="M5.7751 4.125V61.875H4.125V4.125H5.7751ZM6.60014 0H3.30021C2.42498 0 1.58541 0.347676 0.966545 0.966545C0.347676 1.58541 0 2.4248 0 3.30002V62.7C0 63.1333 0.0854259 63.5625 0.251266 63.9629C0.417108 64.3632 0.660111 64.727 0.966545 65.0333C1.27298 65.3398 1.63695 65.583 2.03732 65.7488C2.43769 65.9146 2.86683 66 3.30021 66H6.60014C7.03352 66 7.46266 65.9146 7.86303 65.7488C8.26341 65.583 8.62713 65.3398 8.93355 65.0333C9.23998 64.727 9.483 64.3632 9.64883 63.9629C9.81467 63.5625 9.9001 63.1333 9.9001 62.7V3.30002C9.9001 2.4248 9.55243 1.58541 8.93355 0.966545C8.31468 0.347676 7.47537 0 6.60014 0Z" fill="white"/>
<path id="Vector_23" d="M73.4252 50.325V53.625H63.525V50.325H73.4252ZM74.25 46.2H62.762C61.8867 46.2 61.0475 46.5478 60.4285 47.1667C59.8096 47.7855 59.462 48.6249 59.462 49.5V54.45C59.462 54.8833 59.5474 55.3126 59.7133 55.7129C59.8791 56.1132 60.122 56.477 60.4285 56.7835C60.735 57.0898 61.0986 57.333 61.499 57.4988C61.8995 57.6646 62.3285 57.75 62.762 57.75H74.3118C74.7452 57.75 75.1744 57.6646 75.5747 57.4988C75.9752 57.333 76.3389 57.0898 76.6453 56.7835C76.9518 56.477 77.195 56.1132 77.3608 55.7129C77.5267 55.3126 77.6118 54.8833 77.6118 54.45V49.5C77.6118 48.6249 77.2641 47.7855 76.6453 47.1667C76.0264 46.5478 75.1872 46.2 74.3118 46.2H74.25Z" fill="white"/>
<path id="Vector_24" d="M51.9744 50.325V53.625H17.3862V50.325H52.0363H51.9744ZM52.861 46.2H16.5612C15.686 46.2 14.8466 46.5478 14.2278 47.1667C13.6089 47.7855 13.2612 48.6249 13.2612 49.5V54.45C13.2612 54.8833 13.3467 55.3126 13.5125 55.7129C13.6783 56.1132 13.9213 56.477 14.2278 56.7835C14.5342 57.0898 14.8979 57.333 15.2983 57.4988C15.6987 57.6646 16.1278 57.75 16.5612 57.75H52.861C53.2946 57.75 53.7236 57.6646 54.1239 57.4988C54.5245 57.333 54.8883 57.0898 55.1948 56.7835C55.5013 56.477 55.7442 56.1132 55.91 55.7129C56.0759 55.3126 56.1613 54.8833 56.1613 54.45V49.5C56.1613 48.6249 55.8137 47.7855 55.1948 47.1667C54.576 46.5478 53.7364 46.2 52.861 46.2Z" fill="white"/>
<path id="Vector_25" d="M94.8731 4.125V45.375H10.7234V4.125H94.8731ZM95.6983 0H9.89833C9.02313 0 8.18379 0.347676 7.56494 0.966545C6.94606 1.58541 6.59839 2.4248 6.59839 3.30002V46.2C6.59839 46.6333 6.68382 47.0625 6.84964 47.4629C7.01549 47.8632 7.25849 48.227 7.56494 48.5333C7.87136 48.8398 8.23509 49.083 8.63546 49.2488C9.03583 49.4146 9.46498 49.5 9.89833 49.5H95.7602C96.1936 49.5 96.6228 49.4146 97.0231 49.2488C97.4234 49.083 97.7873 48.8398 98.0935 48.5333C98.4 48.227 98.643 47.8632 98.8088 47.4629C98.9748 47.0625 99.0602 46.6333 99.0602 46.2V3.30002C99.0602 2.4248 98.7125 1.58541 98.0935 0.966545C97.4748 0.347676 96.6353 0 95.7602 0H95.6983Z" fill="white"/>
</g>
</g>
</g>
</g>
<defs>
<clipPath id="clip0_28_385">
<rect width="99" height="66" fill="white"/>
</clipPath>
</defs>
</svg>
