<svg width="99" height="99" viewBox="0 0 99 99" fill="none" xmlns="http://www.w3.org/2000/svg">
<g id="configurator-3 1" clip-path="url(#clip0_28_257)">
<g id="Clip path group">
<mask id="mask0_28_257" style="mask-type:luminance" maskUnits="userSpaceOnUse" x="0" y="0" width="99" height="99">
<g id="clip0">
<path id="Vector" d="M99 0H0V99H99V0Z" fill="white"/>
</g>
</mask>
<g mask="url(#mask0_28_257)">
<g id="Group">
<path id="Vector_2" d="M47.8508 33H46.2008V36.3H47.8508V33Z" fill="white"/>
<path id="Vector_3" d="M47.8508 39.6H46.2008V42.9H47.8508V39.6Z" fill="white"/>
<path id="Vector_4" d="M47.8508 26.4H46.2008V29.7H47.8508V26.4Z" fill="white"/>
<path id="Vector_5" d="M75.9 33H74.25V36.3H75.9V33Z" fill="white"/>
<path id="Vector_6" d="M75.9 39.6H74.25V42.9H75.9V39.6Z" fill="white"/>
<path id="Vector_7" d="M75.9 26.4H74.25V29.7H75.9V26.4Z" fill="white"/>
<path id="Vector_8" d="M62.7016 47.85H59.4016V49.5H62.7016V47.85Z" fill="white"/>
<path id="Vector_9" d="M69.3 47.85H66V49.5H69.3V47.85Z" fill="white"/>
<path id="Vector_10" d="M56.0992 47.85H52.7992V49.5H56.0992V47.85Z" fill="white"/>
<path id="Vector_11" d="M62.7016 19.8H59.4016V21.45H62.7016V19.8Z" fill="white"/>
<path id="Vector_12" d="M69.3 19.8H66V21.45H69.3V19.8Z" fill="white"/>
<path id="Vector_13" d="M56.0992 19.8H52.7992V21.45H56.0992V19.8Z" fill="white"/>
<path id="Vector_14" d="M85.8 21.45C85.1472 21.45 84.5093 21.6435 83.9665 22.006C83.4238 22.3686 83.001 22.8841 82.7512 23.4871C82.5015 24.09 82.4361 24.7535 82.5634 25.3937C82.6908 26.0339 83.0049 26.6219 83.4665 27.0833C83.9281 27.5449 84.5161 27.8592 85.1561 27.9865C85.7963 28.1139 86.4598 28.0486 87.0629 27.7988C87.6658 27.549 88.1812 27.126 88.5438 26.5834C88.9064 26.0407 89.0998 25.4026 89.0998 24.75C89.1027 24.3158 89.0192 23.8854 88.8544 23.4838C88.6896 23.0823 88.4464 22.7174 88.1393 22.4103C87.8324 22.1034 87.4678 21.8604 87.066 21.6956C86.6644 21.5306 86.234 21.4473 85.8 21.45Z" fill="white"/>
<path id="Vector_15" d="M85.8 9.89992C85.1472 9.89992 84.5093 10.0935 83.9665 10.4561C83.4238 10.8187 83.001 11.3341 82.7512 11.9371C82.5015 12.5401 82.4361 13.2036 82.5634 13.8438C82.6908 14.4839 83.0049 15.0719 83.4665 15.5334C83.9281 15.9949 84.5161 16.3092 85.1561 16.4365C85.7963 16.5638 86.4598 16.4986 87.0629 16.2488C87.6658 15.999 88.1812 15.5761 88.5438 15.0334C88.9064 14.4907 89.0998 13.8527 89.0998 13.2C89.1027 12.7659 89.0192 12.3354 88.8544 11.9338C88.6896 11.5322 88.4464 11.1674 88.1393 10.8604C87.8324 10.5534 87.4678 10.3104 87.066 10.1455C86.6644 9.98064 86.234 9.89718 85.8 9.89992Z" fill="white"/>
<path id="Vector_16" d="M75.9008 62.7H46.2008V66H75.9008V62.7Z" fill="white"/>
<path id="Vector_17" d="M75.9008 69.3H46.2008V72.6H75.9008V69.3Z" fill="white"/>
<path id="Vector_18" d="M75.9008 75.9H46.2008V79.2H75.9008V75.9Z" fill="white"/>
<path id="Vector_19" d="M23.9267 73.425V83.325H14.0267V73.425H23.9267ZM24.7517 69.3H13.2016C12.7675 69.2971 12.3372 69.3806 11.9356 69.5454C11.534 69.7104 11.169 69.9534 10.8621 70.2603C10.5551 70.5674 10.3122 70.9323 10.1473 71.3338C9.98242 71.7354 9.89893 72.1658 9.90168 72.6V84.15C9.90168 85.0251 10.2494 85.8646 10.8682 86.4835C11.4871 87.1023 12.3264 87.45 13.2016 87.45H24.7517C25.627 87.45 26.4662 87.1023 27.0852 86.4835C27.7039 85.8646 28.0517 85.0251 28.0517 84.15V72.6C28.0517 71.7247 27.7039 70.8852 27.0852 70.2665C26.4662 69.6475 25.627 69.3 24.7517 69.3Z" fill="white"/>
<path id="Vector_20" d="M23.9258 9.89998H22.2758C22.057 9.89998 21.8472 9.98695 21.6925 10.1417C21.5378 10.2964 21.4508 10.5062 21.4508 10.725V60.225C21.4508 60.4438 21.5378 60.6536 21.6925 60.8083C21.8472 60.9632 22.057 61.05 22.2758 61.05H23.9258C24.1446 61.05 24.3544 60.9632 24.5091 60.8083C24.664 60.6536 24.7508 60.4438 24.7508 60.225V10.725C24.7508 10.5062 24.664 10.2964 24.5091 10.1417C24.3544 9.98695 24.1446 9.89998 23.9258 9.89998Z" fill="white"/>
<path id="Vector_21" d="M15.6758 9.89998H14.0259C13.8071 9.89998 13.5972 9.98695 13.4425 10.1417C13.2878 10.2964 13.2008 10.5062 13.2008 10.725V60.225C13.2008 60.4438 13.2878 60.6536 13.4425 60.8083C13.5972 60.9632 13.8071 61.05 14.0259 61.05H15.6758C15.8946 61.05 16.1045 60.9632 16.2592 60.8083C16.4139 60.6536 16.5009 60.4438 16.5009 60.225V10.725C16.5009 10.5062 16.4139 10.2964 16.2592 10.1417C16.1045 9.98695 15.8946 9.89998 15.6758 9.89998Z" fill="white"/>
<path id="Vector_22" d="M70.126 25.575V43.725H52.0379V25.575H70.1879H70.126ZM71.0129 21.45H51.2129C50.7787 21.4473 50.3483 21.5306 49.9467 21.6956C49.5452 21.8604 49.1803 22.1034 48.8734 22.4103C48.5665 22.7174 48.3235 23.0823 48.1585 23.4838C47.9938 23.8854 47.9102 24.3158 47.9129 24.75V44.5498C47.9129 44.9833 47.9983 45.4123 48.1641 45.8129C48.3299 46.2132 48.5731 46.577 48.8794 46.8835C49.1859 47.1898 49.5497 47.4328 49.95 47.5988C50.3504 47.7646 50.7796 47.85 51.2129 47.85H71.0129C71.4462 47.85 71.8752 47.7646 72.2758 47.5988C72.6761 47.4328 73.0399 47.1898 73.3464 46.8835C73.6529 46.577 73.8959 46.2132 74.0617 45.8129C74.2275 45.4123 74.3129 44.9833 74.3129 44.5498V24.75C74.3129 23.8747 73.9654 23.0354 73.3464 22.4165C72.7277 21.7977 71.888 21.45 71.0129 21.45Z" fill="white"/>
<path id="Vector_23" d="M92.3986 4.125C93.0548 4.125 93.6845 4.3857 94.1488 4.84984C94.6129 5.31399 94.8736 5.94361 94.8736 6.60002V92.4C94.8736 92.7251 94.8096 93.0468 94.6852 93.3471C94.5609 93.6474 94.3786 93.9203 94.1488 94.15C93.919 94.3798 93.646 94.5621 93.3457 94.6865C93.0454 94.8109 92.7234 94.875 92.3986 94.875H6.66045C6.33542 94.875 6.01357 94.8109 5.71329 94.6865C5.41301 94.5621 5.14022 94.3798 4.9104 94.15C4.68058 93.9203 4.49825 93.6474 4.37388 93.3471C4.24949 93.0468 4.18543 92.7251 4.18543 92.4V6.60002C4.18543 5.94361 4.44623 5.31399 4.9104 4.84984C5.37455 4.3857 6.00404 4.125 6.66045 4.125H92.4604H92.3986ZM92.4604 0H6.66045C4.91003 0 3.23126 0.695349 1.99352 1.93309C0.755774 3.17083 0.0604248 4.8496 0.0604248 6.60002V92.4C0.0604248 94.1504 0.755774 95.8291 1.99352 97.0668C3.23126 98.3047 4.91003 99 6.66045 99H92.4604C94.2109 99 95.8897 98.3047 97.1274 97.0668C98.3652 95.8291 99.0606 94.1504 99.0606 92.4V6.60002C99.0606 4.8496 98.3652 3.17083 97.1274 1.93309C95.8897 0.695349 94.2109 0 92.4604 0Z" fill="white"/>
</g>
</g>
</g>
</g>
<defs>
<clipPath id="clip0_28_257">
<rect width="99" height="99" fill="white"/>
</clipPath>
</defs>
</svg>
