<svg width="80" height="107" viewBox="0 0 80 107" fill="none" xmlns="http://www.w3.org/2000/svg">
<g id="configurator-5 1" clip-path="url(#clip0_28_479)">
<g id="Clip path group">
<mask id="mask0_28_479" style="mask-type:luminance" maskUnits="userSpaceOnUse" x="0" y="0" width="80" height="107">
<g id="clip0">
<path id="Vector" d="M80 0H0V106.667H80V0Z" fill="white"/>
</g>
</mask>
<g mask="url(#mask0_28_479)">
<g id="Group">
<path id="Vector_2" d="M15.415 82.6666C15.1279 82.6698 14.8442 82.7303 14.5809 82.8448C14.3175 82.9593 14.0799 83.1255 13.8818 83.3333L12.8485 84.4C12.4406 84.8328 12.2135 85.4051 12.2135 86C12.2135 86.5948 12.4406 87.1671 12.8485 87.6L19.0318 94.0166C19.2306 94.2223 19.469 94.3858 19.7325 94.4975C19.9958 94.6091 20.279 94.6666 20.5651 94.6666C20.8538 94.667 21.1395 94.6098 21.4056 94.4981C21.6718 94.3865 21.913 94.2228 22.115 94.0166L23.1483 92.95C23.5573 92.5143 23.785 91.9393 23.785 91.3416C23.785 90.7441 23.5573 90.169 23.1483 89.7333L16.9651 83.3333C16.7645 83.1241 16.5239 82.9575 16.2577 82.843C15.9915 82.7285 15.7048 82.6685 15.415 82.6666Z" fill="white"/>
<path id="Vector_3" d="M45.2001 59.8667C45.1128 59.8661 45.0263 59.8836 44.9461 59.9179C44.8658 59.9524 44.7935 60.0031 44.7336 60.0667L17.367 87.4001C17.304 87.4622 17.254 87.5361 17.2198 87.6176C17.1856 87.6992 17.168 87.7867 17.168 87.8751C17.168 87.9636 17.1856 88.0511 17.2198 88.1326C17.254 88.2141 17.304 88.2881 17.367 88.3502L18.3168 89.2834C18.3766 89.3472 18.4491 89.3977 18.5295 89.4322C18.6098 89.4666 18.6961 89.4841 18.7835 89.4834C18.8708 89.4832 18.9571 89.4652 19.0373 89.4309C19.1175 89.3966 19.1898 89.3464 19.2503 89.2834L46.6003 61.9501C46.7198 61.8207 46.7861 61.6512 46.7861 61.4752C46.7861 61.2991 46.7198 61.1294 46.6003 61.0001L45.6501 60.0667C45.5898 60.0039 45.5173 59.9537 45.4371 59.9194C45.357 59.8851 45.2706 59.8671 45.1835 59.8667H45.2001Z" fill="white"/>
<path id="Vector_4" d="M70.6992 96.6667C70.831 96.6667 70.9599 96.7059 71.0695 96.779C71.1792 96.8524 71.2647 96.9564 71.315 97.0782C71.3655 97.2 71.3789 97.3342 71.3532 97.4635C71.3274 97.5929 71.2639 97.7115 71.1707 97.8047C71.0774 97.898 70.9585 97.9615 70.8292 97.9872C70.6999 98.013 70.5659 97.9997 70.444 97.9494C70.3224 97.8989 70.218 97.8134 70.1449 97.7037C70.0715 97.594 70.0325 97.4652 70.0325 97.3334C70.0325 97.1565 70.1029 96.987 70.2279 96.862C70.3529 96.7369 70.5224 96.6667 70.6992 96.6667ZM70.6992 93.3334C69.908 93.3334 69.1347 93.568 68.4769 94.0075C67.8192 94.447 67.3065 95.0719 67.0037 95.8027C66.701 96.5335 66.6217 97.3379 66.776 98.1139C66.9304 98.8897 67.3115 99.6024 67.8709 100.162C68.4302 100.721 69.1429 101.102 69.9189 101.257C70.6947 101.411 71.499 101.332 72.23 101.029C72.9609 100.726 73.5855 100.213 74.025 99.5557C74.4645 98.8979 74.6992 98.1245 74.6992 97.3334C74.6992 96.2725 74.2777 95.2552 73.5275 94.505C72.7775 93.7549 71.76 93.3334 70.6992 93.3334Z" fill="white"/>
<path id="Vector_5" d="M9.33206 96.6667C9.46393 96.6667 9.59271 96.7059 9.70235 96.779C9.81198 96.8524 9.89745 96.9564 9.94791 97.0782C9.99836 97.2 10.0115 97.3342 9.98575 97.4635C9.96003 97.5929 9.8967 97.7115 9.80346 97.8047C9.71023 97.898 9.5914 97.9615 9.46208 97.9872C9.33275 98.013 9.19876 97.9997 9.07695 97.9494C8.95513 97.8989 8.85091 97.8134 8.77766 97.7037C8.70441 97.594 8.66536 97.4652 8.66536 97.3334C8.66536 97.2459 8.68251 97.159 8.71601 97.0782C8.74953 96.9974 8.79876 96.9239 8.86068 96.862C8.92258 96.8 8.99606 96.751 9.07695 96.7175C9.15783 96.684 9.24451 96.6667 9.33206 96.6667ZM9.33206 93.3334C8.54095 93.3334 7.76758 93.568 7.10978 94.0075C6.45198 94.447 5.93915 95.0719 5.6364 95.8027C5.33365 96.5335 5.2546 97.3379 5.40893 98.1139C5.56328 98.8897 5.94408 99.6024 6.5035 100.162C7.06291 100.721 7.77571 101.102 8.55163 101.257C9.32756 101.411 10.1317 101.332 10.8626 101.029C11.5935 100.726 12.2183 100.213 12.6579 99.5557C13.0974 98.8979 13.3319 98.1245 13.3319 97.3334C13.3319 96.2725 12.9106 95.2552 12.1604 94.505C11.4103 93.7549 10.3929 93.3334 9.33206 93.3334Z" fill="white"/>
<path id="Vector_6" d="M70.6992 8.66665C70.831 8.66665 70.9599 8.7058 71.0695 8.77906C71.1792 8.85231 71.2647 8.95641 71.315 9.07823C71.3655 9.20005 71.3789 9.33415 71.3532 9.46346C71.3274 9.59278 71.2639 9.71151 71.1707 9.80475C71.0774 9.89798 70.9585 9.96153 70.8292 9.98725C70.6999 10.013 70.5659 9.99976 70.444 9.9493C70.3224 9.89885 70.218 9.81336 70.1449 9.70375C70.0715 9.59411 70.0325 9.46521 70.0325 9.33336C70.0325 9.15655 70.1029 8.98698 70.2279 8.86196C70.3529 8.73693 70.5224 8.66665 70.6992 8.66665ZM70.6992 5.33331C69.908 5.33331 69.1347 5.56793 68.4769 6.00745C67.8192 6.44698 67.3065 7.0717 67.0037 7.8026C66.701 8.5335 66.6217 9.33776 66.776 10.1137C66.9304 10.8896 67.3115 11.6024 67.8709 12.1618C68.4302 12.7212 69.1429 13.1021 69.9189 13.2565C70.6947 13.4108 71.499 13.3317 72.23 13.0289C72.9609 12.7262 73.5855 12.2134 74.025 11.5556C74.4645 10.8978 74.6992 10.1245 74.6992 9.33336C74.6992 8.2725 74.2777 7.25513 73.5275 6.50498C72.7775 5.75485 71.76 5.33331 70.6992 5.33331Z" fill="white"/>
<path id="Vector_7" d="M9.33206 8.66665C9.46393 8.66665 9.59271 8.7058 9.70235 8.77906C9.81198 8.85231 9.89745 8.95641 9.94791 9.07823C9.99836 9.20005 10.0115 9.33415 9.98575 9.46346C9.96003 9.59278 9.8967 9.71151 9.80346 9.80475C9.71023 9.89798 9.5914 9.96153 9.46208 9.98725C9.33275 10.013 9.19876 9.99976 9.07695 9.9493C8.95513 9.89885 8.85091 9.81336 8.77766 9.70375C8.70441 9.59411 8.66536 9.46521 8.66536 9.33336C8.66536 9.24581 8.68251 9.15911 8.71601 9.07823C8.74953 8.99735 8.79876 8.92386 8.86068 8.86196C8.92258 8.80006 8.99606 8.75091 9.07695 8.71741C9.15783 8.68391 9.24451 8.66665 9.33206 8.66665ZM9.33206 5.33331C8.54095 5.33331 7.76758 5.56793 7.10978 6.00745C6.45198 6.44698 5.93915 7.0717 5.6364 7.8026C5.33365 8.5335 5.2546 9.33776 5.40893 10.1137C5.56328 10.8896 5.94408 11.6024 6.5035 12.1618C7.06291 12.7212 7.77571 13.1021 8.55163 13.2565C9.32756 13.4108 10.1317 13.3317 10.8626 13.0289C11.5935 12.7262 12.2183 12.2134 12.6579 11.5556C13.0974 10.8978 13.3319 10.1245 13.3319 9.33336C13.3319 8.2725 12.9106 7.25513 12.1604 6.50498C11.4103 5.75485 10.3929 5.33331 9.33206 5.33331Z" fill="white"/>
<path id="Vector_8" d="M39.9994 39.3333C40.1312 39.3333 40.2602 39.3725 40.3699 39.4457C40.4796 39.519 40.565 39.6232 40.6154 39.745C40.6659 39.8667 40.679 40.0007 40.6532 40.13C40.6275 40.2593 40.564 40.3782 40.4707 40.4715C40.3775 40.5647 40.2589 40.6282 40.1295 40.6538C40.0002 40.6795 39.8661 40.6663 39.7442 40.6158C39.6224 40.5655 39.5184 40.48 39.4452 40.3705C39.3719 40.2608 39.3329 40.1318 39.3329 40C39.3329 39.8232 39.4031 39.6537 39.5281 39.5287C39.6531 39.4037 39.8225 39.3333 39.9994 39.3333ZM39.9994 36C39.2082 36 38.4349 36.2347 37.7771 36.6742C37.1192 37.1137 36.6067 37.7383 36.3039 38.4693C36.0012 39.2002 35.9219 40.0045 36.0762 40.7803C36.2306 41.5563 36.6116 42.269 37.1711 42.8285C37.7304 43.3878 38.4432 43.7688 39.2192 43.9232C39.995 44.0775 40.7992 43.9983 41.5302 43.6955C42.261 43.3928 42.8859 42.8802 43.3254 42.2223C43.7649 41.5645 43.9994 40.7912 43.9994 40C43.9994 38.9392 43.578 37.9217 42.8279 37.1715C42.0779 36.4215 41.0602 36 39.9994 36Z" fill="white"/>
<path id="Vector_9" d="M39.9993 32.6667C41.4496 32.6667 42.8676 33.0967 44.0736 33.9025C45.2794 34.7084 46.2193 35.8537 46.7743 37.1937C47.3294 38.5337 47.4748 40.0082 47.1918 41.4307C46.9089 42.8532 46.2104 44.1599 45.1848 45.1855C44.1593 46.211 42.8524 46.9095 41.4299 47.1925C40.0074 47.4754 38.5331 47.3302 37.1931 46.7752C35.8531 46.2202 34.7076 45.2802 33.9018 44.0742C33.0961 42.8684 32.6661 41.4505 32.6661 40C32.6704 38.0565 33.4444 36.1937 34.8188 34.8194C36.1931 33.445 38.0556 32.671 39.9993 32.6667ZM39.9993 29.3334C37.8896 29.3334 35.8273 29.959 34.0731 31.131C32.3189 32.3032 30.9518 33.969 30.1444 35.918C29.3371 37.8672 29.1261 40.0119 29.5376 42.081C29.9491 44.15 30.9651 46.0507 32.4569 47.5425C33.9486 49.0342 35.8493 50.0502 37.9183 50.4617C39.9874 50.8734 42.1323 50.662 44.0813 49.8547C46.0303 49.0474 47.6961 47.6802 48.8683 45.926C50.0403 44.172 50.6659 42.1097 50.6659 40C50.6659 37.171 49.5421 34.458 47.5418 32.4575C45.5414 30.4572 42.8283 29.3334 39.9993 29.3334Z" fill="white"/>
<path id="Vector_10" d="M40 10.0001C45.9335 10.0001 51.7338 11.7595 56.6673 15.0559C61.6008 18.3524 65.4458 23.0379 67.7165 28.5195C69.9871 34.0014 70.5811 40.0334 69.4236 45.8527C68.266 51.6722 65.4088 57.0177 61.2131 61.2132C57.0176 65.4089 51.6723 68.266 45.8528 69.4235C40.0335 70.5812 34.0013 69.987 28.5195 67.7165C23.0376 65.4459 18.3523 61.6007 15.0559 56.6672C11.7595 51.7337 9.99997 45.9335 9.99997 40C9.99997 32.0435 13.1607 24.4129 18.7868 18.7869C24.413 13.1607 32.0435 10.0001 40 10.0001ZM40 6.66675C33.4073 6.66675 26.9628 8.62171 21.4811 12.2844C15.9995 15.9471 11.727 21.153 9.20407 27.2439C6.68116 33.3349 6.02092 40.037 7.30711 46.503C8.59327 52.969 11.7681 58.9085 16.4298 63.5702C21.0916 68.232 27.0311 71.4067 33.4971 72.6929C39.9631 73.979 46.6653 73.319 52.7561 70.796C58.847 68.2732 64.053 64.0007 67.7156 58.519C71.3783 53.0374 73.3333 46.5929 73.3333 40C73.3333 31.1595 69.8215 22.681 63.5703 16.4298C57.3191 10.1786 48.8405 6.66675 40 6.66675Z" fill="white"/>
<path id="Vector_11" d="M76.6667 3.33333V103.333H3.33333V3.33333H76.6667ZM77.3333 0H2.66683C1.95958 0 1.28114 0.280949 0.781047 0.781046C0.28095 1.28114 0 1.95938 0 2.66663V104C0 104.707 0.28095 105.385 0.781047 105.886C1.28114 106.386 1.95958 106.667 2.66683 106.667H77.3667C78.074 106.667 78.7522 106.386 79.2523 105.886C79.7523 105.385 80.0333 104.707 80.0333 104V2.66663C80.0333 1.95938 79.7523 1.28114 79.2523 0.781046C78.7522 0.280949 78.074 0 77.3667 0H77.3333Z" fill="white"/>
</g>
</g>
</g>
</g>
<defs>
<clipPath id="clip0_28_479">
<rect width="80" height="106.667" fill="white"/>
</clipPath>
</defs>
</svg>
