<svg width="99" height="99" viewBox="0 0 99 99" fill="none" xmlns="http://www.w3.org/2000/svg">
<g id="configurator-2 1" clip-path="url(#clip0_28_237)">
<g id="Clip path group">
<mask id="mask0_28_237" style="mask-type:luminance" maskUnits="userSpaceOnUse" x="0" y="0" width="99" height="99">
<g id="clip0">
<path id="Vector" d="M99 0H0V99H99V0Z" fill="white"/>
</g>
</mask>
<g mask="url(#mask0_28_237)">
<g id="Group">
<path id="Vector_2" d="M9.81785 85.8C9.16517 85.8 8.52714 85.9935 7.98447 86.356C7.44179 86.7186 7.01881 87.2341 6.76904 87.8371C6.51927 88.4402 6.45389 89.1037 6.58123 89.7437C6.70855 90.3839 7.02293 90.9719 7.48444 91.4335C7.94597 91.8949 8.53394 92.2094 9.17408 92.3367C9.81422 92.4639 10.4777 92.3986 11.0807 92.1488C11.6837 91.899 12.199 91.476 12.5616 90.9334C12.9242 90.3907 13.1178 89.7528 13.1178 89.1C13.1178 88.6667 13.0325 88.2375 12.8667 87.8371C12.7008 87.4368 12.4577 87.073 12.1513 86.7667C11.8448 86.4602 11.4811 86.217 11.0807 86.0512C10.6804 85.8854 10.2512 85.8 9.81785 85.8Z" fill="white"/>
<path id="Vector_3" d="M89.0992 85.8C88.4467 85.8 87.8085 85.9935 87.2659 86.356C86.7232 86.7186 86.3002 87.2341 86.0504 87.8371C85.8007 88.4402 85.7353 89.1037 85.8625 89.7437C85.99 90.3839 86.3043 90.9719 86.7659 91.4335C87.2273 91.8949 87.8153 92.2094 88.4555 92.3367C89.0957 92.4639 89.7592 92.3986 90.3621 92.1488C90.9652 91.899 91.4804 91.476 91.843 90.9334C92.2058 90.3907 92.3992 89.7528 92.3992 89.1C92.3992 88.6667 92.3138 88.2375 92.148 87.8371C91.9822 87.4368 91.739 87.073 91.4327 86.7667C91.1263 86.4602 90.7626 86.217 90.3621 86.0512C89.9618 85.8854 89.5326 85.8 89.0992 85.8Z" fill="white"/>
<path id="Vector_4" d="M9.81785 6.60002C9.16517 6.60002 8.52714 6.79359 7.98447 7.1562C7.44179 7.5188 7.01881 8.03416 6.76904 8.63715C6.51927 9.24017 6.45389 9.90367 6.58123 10.5438C6.70855 11.1839 7.02293 11.7719 7.48444 12.2335C7.94597 12.695 8.53394 13.0093 9.17408 13.1366C9.81422 13.2639 10.4777 13.1986 11.0807 12.9489C11.6837 12.6991 12.199 12.2761 12.5616 11.7334C12.9242 11.1908 13.1178 10.5527 13.1178 9.90004C13.1178 9.02482 12.7701 8.18544 12.1513 7.56657C11.5324 6.9477 10.6931 6.60002 9.81785 6.60002Z" fill="white"/>
<path id="Vector_5" d="M89.1008 6.60004C88.4468 6.58374 87.8025 6.76229 87.2499 7.11302C86.6976 7.46375 86.2618 7.97075 85.9982 8.56971C85.7346 9.16863 85.655 9.83245 85.7697 10.4767C85.8841 11.121 86.1877 11.7166 86.6415 12.188C87.0954 12.6594 87.6793 12.9852 88.3187 13.124C88.9583 13.2627 89.6247 13.2082 90.2331 12.9674C90.8416 12.7266 91.3646 12.3104 91.7359 11.7715C92.1071 11.2327 92.3101 10.5956 92.3183 9.94129C92.3183 9.06607 91.9708 8.22669 91.3518 7.60782C90.7329 6.98894 89.8936 6.64127 89.0185 6.64127L89.1008 6.60004Z" fill="white"/>
<path id="Vector_6" d="M27.2044 21.0581C30.9796 22.1077 34.4553 24.0294 37.3519 26.6681C39.7489 29.54 41.513 32.8853 42.5288 36.4856L39.5175 39.5175C38.235 35.9879 36.2055 32.7768 33.5678 30.1034C30.9303 27.4302 27.7464 25.3578 24.2344 24.0281L27.2044 21.0581ZM25.9256 16.5L16.5 25.9256C21.7907 26.9581 26.698 29.4189 30.69 33.0413C35.5575 37.9088 37.7231 47.1488 37.7231 47.1488L47.1488 37.7025C47.1488 37.7025 45.0863 28.5656 40.26 23.76C36.1901 20.0827 31.2015 17.5742 25.8225 16.5H25.9256Z" fill="white"/>
<path id="Vector_7" d="M59.4833 59.4412C60.766 62.9708 62.7953 66.1821 65.433 68.8553C68.0707 71.5285 71.2542 73.6009 74.7664 74.9306L71.8171 78.0037C68.0379 76.9636 64.5601 75.041 61.6696 72.3937C59.2509 69.5335 57.4779 66.1846 56.4721 62.5762L59.4833 59.565V59.4412ZM61.2983 51.9337L51.8727 61.3594C51.8727 61.3594 53.935 70.5169 58.7406 75.3225C62.7819 78.9834 67.7327 81.4908 73.0752 82.5825L82.5008 73.1569C77.2113 72.1205 72.305 69.6601 68.3108 66.0412C63.4433 61.1737 61.2983 51.9337 61.2983 51.9337Z" fill="white"/>
<path id="Vector_8" d="M74.7467 24.5644L77.6138 27.4313C76.5751 31.1549 74.6745 34.5817 72.0656 37.4344C69.2483 39.8178 65.9483 41.5629 62.3925 42.5494L59.4638 39.6206C62.8877 38.2699 66.0287 36.2903 68.7244 33.7838C71.2998 31.1217 73.3438 27.9925 74.7467 24.5644ZM72.8494 16.83C71.8258 22.0685 69.3863 26.9264 65.7956 30.8756C60.99 35.6813 51.8325 37.8263 51.8325 37.8263L61.1756 47.1694C61.1756 47.1694 70.2298 45.1069 74.9942 40.3631C78.6124 36.36 81.0911 31.4597 82.1719 26.1731L72.8494 16.83Z" fill="white"/>
<path id="Vector_9" d="M36.6302 56.4506L39.5383 59.3794C36.063 60.647 32.9014 62.6478 30.268 65.2457C27.6344 67.8437 25.5909 70.9781 24.2758 74.4356L21.4089 71.5688C22.4208 67.8204 24.3162 64.369 26.9364 61.5038C29.7637 59.1236 33.0697 57.3794 36.6302 56.3888V56.4506ZM37.8473 51.7688C37.8473 51.7688 28.7927 53.8313 24.0283 58.575C20.3993 62.5736 17.9131 67.4749 16.8303 72.765L26.1733 82.1081C27.191 76.8719 29.6235 72.0143 33.2067 68.0625C38.0329 63.2363 47.1696 61.1119 47.1696 61.1119L37.8473 51.7688Z" fill="white"/>
<path id="Vector_10" d="M63.4421 49.5619C66.7968 51.1271 70.4497 51.95 74.1513 51.975C77.853 51.9998 81.5167 51.2261 84.8921 49.7063V53.8313C81.5268 55.7327 77.7604 56.8138 73.899 56.9869C70.2218 56.6678 66.6559 55.5635 63.4421 53.7488V49.6238V49.5619ZM89.0171 42.9619C84.5935 45.9459 79.4352 47.6582 74.1051 47.9119C67.2988 47.9119 59.3171 42.9619 59.3171 42.9619V56.1619C59.3171 56.1619 67.1753 61.1119 73.899 61.1119C79.291 60.8468 84.5126 59.1372 89.0171 56.1619V42.9413V42.9619Z" fill="white"/>
<path id="Vector_11" d="M25.0177 42.075C28.692 42.3932 32.2567 43.4901 35.4746 45.2925V49.4175C32.1026 47.9529 28.4856 47.1343 24.8115 47.0044C21.1039 47.0654 17.4424 47.8356 14.0245 49.2731V45.1481C17.3898 43.2467 21.1561 42.1655 25.0177 41.9925V42.075ZM25.0177 37.8675C19.5855 38.1548 14.3326 39.9081 9.81702 42.9412V56.1412C14.2431 53.162 19.3998 51.4501 24.7287 51.1912C31.535 51.1912 39.5171 56.1412 39.5171 56.1412V42.9412C39.5171 42.9412 31.6796 37.9912 24.9352 37.9912L25.0177 37.8675Z" fill="white"/>
<path id="Vector_12" d="M49.4368 63.5663C47.8718 66.9209 47.0487 70.5738 47.0237 74.2756C46.999 77.9774 47.7728 81.6408 49.2925 85.0163H45.1675C43.266 81.6509 42.1849 77.8847 42.0118 74.0231C42.3276 70.3455 43.4321 66.7788 45.25 63.5663H49.375H49.4368ZM56.0368 59.4413H42.8162C42.8162 59.4413 37.8662 67.2788 37.8662 74.0231C38.1312 79.4151 39.8408 84.6368 42.8162 89.1413H56.0162C53.0369 84.7153 51.3251 79.5585 51.0662 74.2294C51.0662 67.4231 56.0162 59.4413 56.0162 59.4413H56.0368Z" fill="white"/>
<path id="Vector_13" d="M53.769 14.0663C55.6791 17.428 56.7609 21.1963 56.9246 25.0594C56.6064 28.7337 55.5096 32.2983 53.7071 35.5162H49.5821C51.0449 32.1436 51.8633 28.5271 51.9953 24.8531C51.9388 21.1452 51.1682 17.4828 49.7263 14.0663H53.8513H53.769ZM56.1819 9.94127H42.8171C45.8012 14.365 47.5135 19.5231 47.7671 24.8531C47.7671 31.6594 42.8171 39.6412 42.8171 39.6412H56.0171C56.0171 39.6412 60.9671 31.7831 60.9671 25.0594C60.7021 19.6674 58.9925 14.4458 56.0171 9.94127H56.1819Z" fill="white"/>
<path id="Vector_14" d="M49.4992 40.425C51.2942 40.425 53.0488 40.9573 54.541 41.9546C56.0334 42.9516 57.1966 44.3689 57.8835 46.0272C58.5703 47.6854 58.7501 49.5101 58.3999 51.2705C58.0497 53.0308 57.1853 54.6478 55.9163 55.9171C54.647 57.1861 53.03 58.0505 51.2696 58.4007C49.5093 58.7509 47.6846 58.5711 46.0264 57.8843C44.3683 57.1973 42.951 56.0342 41.9537 54.5418C40.9565 53.0494 40.4244 51.2948 40.4244 49.5C40.4244 47.0931 41.3804 44.7849 43.0823 43.0829C44.7841 41.3812 47.0925 40.425 49.4992 40.425ZM49.4992 36.3C46.8885 36.3 44.3363 37.0741 42.1658 38.5246C39.995 39.975 38.3031 42.0366 37.304 44.4485C36.305 46.8606 36.0434 49.5146 36.5529 52.0752C37.0621 54.6358 38.3194 56.9879 40.1656 58.8338C42.0115 60.68 44.3636 61.9371 46.924 62.4463C49.4845 62.9558 52.1386 62.6942 54.5507 61.6952C56.9626 60.6961 59.0242 59.0042 60.4746 56.8336C61.9251 54.6629 62.6992 52.1107 62.6992 49.5C62.6992 45.9991 61.3087 42.6418 58.833 40.1662C56.3576 37.6907 53.0001 36.3 49.4992 36.3Z" fill="white"/>
<path id="Vector_15" d="M49.5 4.125C58.4743 4.125 67.247 6.7862 74.7089 11.7721C82.1708 16.7579 87.9867 23.8446 91.4211 32.1358C94.8554 40.4269 95.7538 49.5503 94.0032 58.3522C92.2523 67.1542 87.9308 75.2392 81.5849 81.5849C75.2392 87.9308 67.1542 92.2523 58.3522 94.0032C49.5503 95.7538 40.4271 94.8554 32.1358 91.4211C23.8446 87.9869 16.758 82.1708 11.7721 74.7089C6.78624 67.2472 4.12498 58.4743 4.12498 49.5C4.12498 37.4657 8.90557 25.9246 17.415 17.415C25.9246 8.90559 37.4657 4.125 49.5 4.125ZM49.5 0C39.7097 0 30.1395 2.90313 21.9992 8.34228C13.859 13.7814 7.51449 21.5123 3.76796 30.5572C0.0214241 39.6021 -0.958809 49.5549 0.951159 59.157C2.86112 68.759 7.57544 77.5791 14.4982 84.5019C21.4209 91.4244 30.241 96.1389 39.8432 98.049C49.4451 99.9589 59.3977 98.9785 68.4428 95.232C77.4877 91.4855 85.2186 85.141 90.6576 77.0008C96.0968 68.8605 99 59.2903 99 49.5C99 36.3718 93.7848 23.7812 84.5019 14.4982C75.2188 5.2152 62.6282 0 49.5 0Z" fill="white"/>
<path id="Vector_16" d="M92.3194 4.125C92.9758 4.125 93.6053 4.38576 94.0694 4.84991C94.5337 5.31405 94.7944 5.94361 94.7944 6.60002V92.4412C94.7944 93.0977 94.5337 93.7272 94.0694 94.1913C93.6053 94.6555 92.9758 94.9163 92.3194 94.9163H6.51946C5.86305 94.9163 5.23343 94.6555 4.76928 94.1913C4.30512 93.7272 4.04444 93.0977 4.04444 92.4412V6.64125C4.04444 5.98484 4.30512 5.35534 4.76928 4.8912C5.23343 4.42705 5.86305 4.16629 6.51946 4.16629H92.3194V4.125ZM92.3194 0.0412903H6.51946C4.76904 0.0412903 3.09026 0.73664 1.85252 1.97438C0.614784 3.21212 -0.0805664 4.89083 -0.0805664 6.64125V92.4412C-0.0805664 94.1917 0.614784 95.8704 1.85252 97.1083C3.09026 98.346 4.76904 99.0413 6.51946 99.0413H92.3194C94.0698 99.0413 95.7487 98.346 96.9864 97.1083C98.2241 95.8704 98.9194 94.1917 98.9194 92.4412V6.64125C98.9194 4.89083 98.2241 3.21212 96.9864 1.97438C95.7487 0.73664 94.0698 0.0412903 92.3194 0.0412903Z" fill="white"/>
</g>
</g>
</g>
</g>
<defs>
<clipPath id="clip0_28_237">
<rect width="99" height="99" fill="white"/>
</clipPath>
</defs>
</svg>
