<svg width="99" height="50" viewBox="0 0 99 50" fill="none" xmlns="http://www.w3.org/2000/svg">
<g id="configurator-4 1">
<g id="Clip path group">
<mask id="mask0_28_284" style="mask-type:luminance" maskUnits="userSpaceOnUse" x="0" y="0" width="99" height="49">
<g id="clip0">
<path id="Vector" d="M99 0H0V48.2625H99V0Z" fill="white"/>
</g>
</mask>
<g mask="url(#mask0_28_284)">
<g id="Group">
<path id="Vector_2" d="M81.6734 14.0249V25.575H76.7234V14.0249H81.6734ZM82.4986 9.89993H75.8986C75.0235 9.89993 74.1838 10.2476 73.5649 10.8665C72.9461 11.4854 72.5984 12.3248 72.5984 13.2V26.4C72.5984 27.2751 72.9461 28.1145 73.5649 28.7335C74.1838 29.3523 75.0235 29.7 75.8986 29.7H82.4986C83.3737 29.7 84.2132 29.3523 84.8319 28.7335C85.4509 28.1145 85.7984 27.2751 85.7984 26.4V13.2C85.7984 12.3248 85.4509 11.4854 84.8319 10.8665C84.2132 10.2476 83.3737 9.89993 82.4986 9.89993Z" fill="white"/>
<path id="Vector_3" d="M61.8742 14.0249V25.575H56.9242V14.0249H61.8742ZM62.6994 9.89993H56.0992C55.2239 9.89993 54.3846 10.2476 53.7657 10.8665C53.1469 11.4854 52.7992 12.3248 52.7992 13.2V26.4C52.7992 27.2751 53.1469 28.1145 53.7657 28.7335C54.3846 29.3523 55.2239 29.7 56.0992 29.7H62.6994C63.5745 29.7 64.4138 29.3523 65.0327 28.7335C65.6517 28.1145 65.9992 27.2751 65.9992 26.4V13.2C65.9992 12.3248 65.6517 11.4854 65.0327 10.8665C64.4138 10.2476 63.5745 9.89993 62.6994 9.89993Z" fill="white"/>
<path id="Vector_4" d="M42.075 14.0249V25.575H37.125V14.0249H42.075ZM42.9 9.89993H36.3C35.4247 9.89993 34.5854 10.2476 33.9665 10.8665C33.3477 11.4854 33 12.3248 33 13.2V26.4C33 27.2751 33.3477 28.1145 33.9665 28.7335C34.5854 29.3523 35.4247 29.7 36.3 29.7H42.9C43.7753 29.7 44.6146 29.3523 45.2335 28.7335C45.8525 28.1145 46.2 27.2751 46.2 26.4V13.2C46.2 12.3248 45.8525 11.4854 45.2335 10.8665C44.6146 10.2476 43.7753 9.89993 42.9 9.89993Z" fill="white"/>
<path id="Vector_5" d="M22.2758 14.0249V25.575H17.3258V14.0249H22.2758ZM23.1006 9.89993H16.5008C15.6255 9.89993 14.7862 10.2476 14.1674 10.8665C13.5485 11.4854 13.2008 12.3248 13.2008 13.2V26.4C13.2008 27.2751 13.5485 28.1145 14.1674 28.7335C14.7862 29.3523 15.6255 29.7 16.5008 29.7H23.1006C23.9759 29.7 24.8154 29.3523 25.4343 28.7335C26.0531 28.1145 26.4008 27.2751 26.4008 26.4V13.2C26.4008 12.3248 26.0531 11.4854 25.4343 10.8665C24.8154 10.2476 23.9759 9.89993 23.1006 9.89993Z" fill="white"/>
<path id="Vector_6" d="M89.9236 39.6V44.1375H9.0737V39.6H89.9236ZM90.7486 35.475H8.24866C7.25413 35.6235 6.35549 36.1507 5.74052 36.9464C5.12556 37.7419 4.84189 38.7445 4.9487 39.7444V43.9931C4.84189 44.993 5.12556 45.9954 5.74052 46.7911C6.35549 47.5866 7.25413 48.114 8.24866 48.2625H90.7486C91.7431 48.114 92.6417 47.5866 93.2568 46.7911C93.8718 45.9954 94.1554 44.993 94.0486 43.9931V39.7444C94.1554 38.7445 93.8718 37.7419 93.2568 36.9464C92.6417 36.1507 91.7431 35.6235 90.7486 35.475Z" fill="white"/>
<path id="Vector_7" d="M94.875 4.12499V35.475H4.125V4.12499H94.875ZM95.7 0H3.29996C2.42474 0 1.58541 0.347674 0.966545 0.966546C0.347676 1.58542 0 2.42485 0 3.30007V36.3C0 37.1754 0.347676 38.0146 0.966545 38.6335C1.58541 39.2523 2.42474 39.6 3.29996 39.6H95.7C96.5753 39.6 97.4146 39.2523 98.0335 38.6335C98.6523 38.0146 99 37.1754 99 36.3V3.30007C99 2.42485 98.6523 1.58542 98.0335 0.966546C97.4146 0.347674 96.5753 0 95.7 0Z" fill="white"/>
</g>
</g>
</g>
</g>
</svg>
