<svg width="31" height="31" viewBox="0 0 31 31" fill="none" xmlns="http://www.w3.org/2000/svg">
<g id="Group 39">
<path id="Vector 8" d="M12.0547 20.6L12.0547 15.95" stroke="black" stroke-width="4" stroke-linecap="round"/>
<path id="Vector 9" d="M18.9453 20.6L18.9453 15.95" stroke="black" stroke-width="4" stroke-linecap="round"/>
<path id="Rectangle 41" d="M0 8.2H31H29.8333C27.9477 8.2 27.0049 8.2 26.4191 8.78579C25.8333 9.37157 25.8333 10.3144 25.8333 12.2V24.35C25.8333 26.2356 25.8333 27.1784 25.2475 27.7642C24.6618 28.35 23.719 28.35 21.8333 28.35H9.16666C7.28105 28.35 6.33824 28.35 5.75245 27.7642C5.16667 27.1784 5.16667 26.2356 5.16667 24.35V12.2C5.16667 10.3144 5.16667 9.37157 4.58088 8.78579C3.99509 8.2 3.05228 8.2 1.16667 8.2H0Z" stroke="black" stroke-width="4" stroke-linecap="round"/>
<path id="Ellipse 45" d="M12.1738 2.57442C12.37 2.40962 12.8025 2.26401 13.404 2.16015C14.0056 2.05629 14.7426 2 15.5009 2C16.2591 2 16.9962 2.05629 17.5977 2.16015C18.1993 2.26401 18.6317 2.40962 18.8279 2.57442" stroke="black" stroke-width="4" stroke-linecap="round"/>
</g>
</svg>
