<svg width="24" height="23" viewBox="0 0 24 23" fill="none" xmlns="http://www.w3.org/2000/svg">
<g id="Group 33">
<path id="Vector 398" d="M17.15 2H22C22.5523 2 23 2.44771 23 3V12C23 12.5523 22.5523 13 22 13H17.15C17.0672 13 17 12.9328 17 12.85V2.15C17 2.06716 17.0672 2 17.15 2Z" stroke="white" stroke-width="2" stroke-linecap="round"/>
<path id="Vector 399" d="M17 12L13.9275 17.4866C13.8439 17.6359 13.8 17.8041 13.8 17.9752V21C13.8 21.5523 13.3523 22 12.8 22H11C9.89543 22 9 21.1046 9 20V13.4286" stroke="white" stroke-width="2" stroke-linecap="round"/>
<path id="Vector 400" d="M12.3533 13H2.34499C1.67484 13 1.19435 12.3538 1.38736 11.712L4.39478 1.712C4.52189 1.28934 4.91105 1 5.35241 1H11.9485C12.2082 1 12.4576 1.101 12.6442 1.28165L13.6114 2.21835C13.7979 2.399 14.0474 2.5 14.3071 2.5H17" stroke="white" stroke-width="2" stroke-linecap="round"/>
</g>
</svg>
