<svg width="24" height="23" viewBox="0 0 24 23" fill="none" xmlns="http://www.w3.org/2000/svg">
<g id="Group 32">
<path id="Vector 398" d="M6.85 21H2C1.44772 21 1 20.5523 1 20V11C1 10.4477 1.44772 10 2 10H6.85C6.93284 10 7 10.0672 7 10.15V20.85C7 20.9328 6.93284 21 6.85 21Z" stroke="white" stroke-width="2" stroke-linecap="round"/>
<path id="Vector 399" d="M7 11L10.0725 5.51338C10.1561 5.3641 10.2 5.19587 10.2 5.02478V2C10.2 1.44772 10.6477 1 11.2 1H13C14.1046 1 15 1.89543 15 3V9.57143" stroke="white" stroke-width="2" stroke-linecap="round"/>
<path id="Vector 400" d="M11.6467 10H21.655C22.3252 10 22.8056 10.6462 22.6126 11.288L19.6052 21.288C19.4781 21.7107 19.0889 22 18.6476 22H12.0515C11.7918 22 11.5424 21.899 11.3558 21.7184L10.3886 20.7816C10.2021 20.601 9.95259 20.5 9.69292 20.5H7" stroke="white" stroke-width="2" stroke-linecap="round"/>
</g>
</svg>
