<svg width="30" height="29" viewBox="0 0 30 29" fill="none" xmlns="http://www.w3.org/2000/svg">
<g id="Group 21">
<path id="Union" d="M2.32698 3.63803L3.66349 4.31901H3.66349L2.32698 3.63803ZM2.7682 27.2318L3.82886 28.2925L3.82886 28.2925L2.7682 27.2318ZM26.362 21.173L25.681 19.8365L25.681 19.8365L26.362 21.173ZM27.673 19.862L29.0095 20.543L27.673 19.862ZM27.673 3.63803L29.0095 2.95704V2.95704L27.673 3.63803ZM26.362 2.32698L25.681 3.66349L25.681 3.66349L26.362 2.32698ZM3.63803 2.32698L4.31901 3.66349V3.66349L3.63803 2.32698ZM8.20711 21.7929L9.26777 22.8536L8.20711 21.7929ZM3.5 6.8C3.5 5.93517 3.50117 5.37676 3.53589 4.95175C3.56918 4.54426 3.6257 4.39318 3.66349 4.31901L0.990471 2.95704C0.70128 3.52461 0.594306 4.11444 0.545854 4.70746C0.498833 5.28296 0.5 5.98467 0.5 6.8H3.5ZM3.5 13.375V6.8H0.5V13.375H3.5ZM0.5 13.375V21.5H3.5V13.375H0.5ZM0.5 21.5V26.9136H3.5V21.5H0.5ZM0.5 26.9136C0.5 28.6509 2.60043 29.5209 3.82886 28.2925L1.70754 26.1711C2.369 25.5097 3.5 25.9782 3.5 26.9136H0.5ZM3.82886 28.2925L9.26777 22.8536L7.14645 20.7322L1.70754 26.1711L3.82886 28.2925ZM23.2 20H8.91421V23H23.2V20ZM25.681 19.8365C25.6068 19.8743 25.4557 19.9308 25.0482 19.9641C24.6232 19.9988 24.0648 20 23.2 20V23C24.0153 23 24.717 23.0012 25.2925 22.9541C25.8856 22.9057 26.4754 22.7987 27.043 22.5095L25.681 19.8365ZM26.3365 19.181C26.1927 19.4632 25.9632 19.6927 25.681 19.8365L27.043 22.5095C27.8897 22.0781 28.5781 21.3897 29.0095 20.543L26.3365 19.181ZM26.5 16.7C26.5 17.5648 26.4988 18.1232 26.4641 18.5482C26.4308 18.9557 26.3743 19.1068 26.3365 19.181L29.0095 20.543C29.2987 19.9754 29.4057 19.3856 29.4541 18.7925C29.5012 18.217 29.5 17.5153 29.5 16.7H26.5ZM26.5 6.8V16.7H29.5V6.8H26.5ZM26.3365 4.31901C26.3743 4.39318 26.4308 4.54426 26.4641 4.95175C26.4988 5.37676 26.5 5.93517 26.5 6.8H29.5C29.5 5.98467 29.5012 5.28296 29.4541 4.70746C29.4057 4.11444 29.2987 3.52461 29.0095 2.95704L26.3365 4.31901ZM25.681 3.66349C25.9632 3.8073 26.1927 4.03677 26.3365 4.31902L29.0095 2.95704C28.5781 2.11031 27.8897 1.4219 27.043 0.99047L25.681 3.66349ZM23.2 3.5C24.0648 3.5 24.6232 3.50117 25.0482 3.53589C25.4557 3.56918 25.6068 3.6257 25.681 3.66349L27.043 0.990471C26.4754 0.70128 25.8856 0.594306 25.2925 0.545854C24.717 0.498833 24.0153 0.5 23.2 0.5V3.5ZM6.8 3.5H23.2V0.5H6.8V3.5ZM4.31901 3.66349C4.39318 3.6257 4.54426 3.56918 4.95175 3.53589C5.37676 3.50117 5.93517 3.5 6.8 3.5V0.5C5.98467 0.5 5.28296 0.498833 4.70746 0.545854C4.11444 0.594306 3.52461 0.70128 2.95704 0.990471L4.31901 3.66349ZM3.66349 4.31901C3.8073 4.03677 4.03677 3.8073 4.31901 3.66349L2.95704 0.990471C2.11031 1.4219 1.4219 2.11031 0.990471 2.95704L3.66349 4.31901ZM9.26777 22.8536C9.174 22.9473 9.04682 23 8.91421 23V20C8.25117 20 7.61529 20.2634 7.14645 20.7322L9.26777 22.8536Z" fill="black"/>
<path id="Vector 7" d="M8.84204 8.15789L21.1578 8.15789" stroke="#222222" stroke-width="3" stroke-linecap="round" stroke-linejoin="round"/>
<path id="Vector 9" d="M8.84204 15.6842L16.3684 15.6842" stroke="#222222" stroke-width="3" stroke-linecap="round" stroke-linejoin="round"/>
</g>
</svg>
