<svg width="30" height="30" viewBox="0 0 30 30" fill="none" xmlns="http://www.w3.org/2000/svg">
<path id="Rectangle 1" d="M2 10.9827C2 6.74821 2 4.63097 3.42785 3.31548C4.85571 2 7.15381 2 11.75 2H18.25C22.8462 2 25.1443 2 26.5721 3.31548C28 4.63097 28 6.74821 28 10.9827V21.2044C28 25.2216 28 27.2302 26.628 27.8445C25.256 28.4589 23.5417 27.2179 20.1131 24.736L19.0158 23.9417C17.088 22.5462 16.1241 21.8484 15 21.8484C13.8759 21.8484 12.912 22.5462 10.9842 23.9417L9.88688 24.736C6.45826 27.2179 4.74395 28.4589 3.37198 27.8445C2 27.2302 2 25.2216 2 21.2044V10.9827Z" fill="black" stroke="black" stroke-width="3"/>
</svg>
